<?xml version="1.0" standalone="no"?>
<!DOCTYPE svg PUBLIC "-//W3C//DTD SVG 1.1//EN" "http://www.w3.org/Graphics/SVG/1.1/DTD/svg11.dtd">
<svg width="804" height="804" version="1.1" xmlns="http://www.w3.org/2000/svg">
  <title>50 cells diameter theta maze</title>
  <desc>50 cells diameter theta maze generated by The Maze Generator Website (https://www.mazegenerator.net/).</desc>
  <g fill="none" stroke="#000000" stroke-width="2" stroke-linecap="square">
    <path d="M 380.37258300203047,425.62741699796953 A 32,32 0 1,1 403,435" />
    <path d="M 403,355 A 48,48 0 0,1 436.94112549695427,436.94112549695427" />
    <path d="M 421.36880475352433,447.34621756054173 A 48,48 0 0,1 369.05887450304573,436.94112549695427" />
    <path d="M 358.65378243945827,421.36880475352433 A 48,48 0 0,1 384.63119524647567,358.65378243945827" />
    <path d="M 357.74516600406093,448.25483399593907 A 64,64 0 0,1 403,339" />
    <path d="M 448.25483399593907,448.25483399593907 A 64,64 0 0,1 378.50826032863426,462.12829008072237" />
    <path d="M 346.4314575050762,346.4314575050762 A 80,80 0 0,1 433.6146745892072,329.08963739909706" />
    <path d="M 447.44561864156816,336.48243101579635 A 80,80 0 0,1 459.5685424949238,346.4314575050762" />
    <path d="M 469.51756898420365,358.55438135843184 A 80,80 0 0,1 481.46282243225846,387.39277423870976" />
    <path d="M 481.46282243225846,418.60722576129024 A 80,80 0 0,1 387.39277423870971,481.46282243225846" />
    <path d="M 358.55438135843184,469.51756898420365 A 80,80 0 0,1 323,403" />
    <path d="M 324.53717756774154,387.39277423870976 A 80,80 0 0,1 336.48243101579635,358.55438135843184" />
    <path d="M 403,307 A 96,96 0 0,1 499,403" />
    <path d="M 491.69243512108352,439.7376095070486 A 96,96 0 0,1 470.88225099390854,470.88225099390854" />
    <path d="M 403,499 A 96,96 0 0,1 349.66525763011822,482.82108278104437" />
    <path d="M 314.30756487891648,439.73760950704866 A 96,96 0 0,1 308.84461308128988,384.27132908645166" />
    <path d="M 323.17891721895563,349.66525763011822 A 96,96 0 0,1 384.27132908645166,308.84461308128988" />
    <path d="M 424.85011606580639,293.15204859483822 A 112,112 0 0,1 482.19595949289334,323.80404050710666" />
    <path d="M 506.4745076412641,360.13945557510993 A 112,112 0 0,1 512.84795140516178,381.14988393419361" />
    <path d="M 515,403 A 112,112 0 0,1 506.47450764126415,445.86054442489007" />
    <path d="M 496.12459657788509,465.2238660981954 A 112,112 0 0,1 424.85011606580639,512.84795140516178" />
    <path d="M 340.7761339018046,496.12459657788509 A 112,112 0 0,1 293.15204859483822,424.85011606580639" />
    <path d="M 293.15204859483822,381.14988393419361 A 112,112 0 0,1 323.80404050710666,323.80404050710672" />
    <path d="M 340.77613390180454,309.87540342211491 A 112,112 0 0,1 381.14988393419355,293.15204859483822" />
    <path d="M 378.02843878193551,277.4594841083865 A 128,128 0 0,1 451.98347934273147,284.74341983855527" />
    <path d="M 474.11298982650908,296.5718896252742 A 128,128 0 0,1 521.25658016144473,354.01652065726853" />
    <path d="M 521.25658016144473,451.98347934273147 A 128,128 0 0,1 493.50966799187808,493.50966799187808" />
    <path d="M 474.11298982650908,509.4281103747258 A 128,128 0 0,1 427.97156121806444,528.5405158916135" />
    <path d="M 403,531 A 128,128 0 0,1 354.01652065726853,521.25658016144473" />
    <path d="M 331.88701017349092,509.4281103747258 A 128,128 0 0,1 312.49033200812192,493.50966799187813" />
    <path d="M 275,403 A 128,128 0 0,1 277.4594841083865,378.02843878193556" />
    <path d="M 284.74341983855533,354.01652065726847 A 128,128 0 0,1 296.5718896252742,331.887010173491" />
    <path d="M 312.49033200812187,312.49033200812192 A 128,128 0 0,1 354.01652065726842,284.74341983855533" />
    <path d="M 403,259 A 144,144 0 0,1 431.09300637032248,261.76691962193479" />
    <path d="M 458.10641426057293,269.96134731837469 A 144,144 0 0,1 514.31350528423411,311.64736708043506" />
    <path d="M 522.73162417156652,322.9978864451773 A 144,144 0 0,1 529.99666206616314,335.1188698970563" />
    <path d="M 540.79940834543811,361.19900647535741 A 144,144 0 0,1 546.30660064079632,388.88553179254325" />
    <path d="M 546.30660064079632,417.11446820745675 A 144,144 0 0,1 540.79940834543811,444.80099352464254" />
    <path d="M 536.03865268162531,458.10641426057293 A 144,144 0 0,1 514.31350528423411,494.35263291956494" />
    <path d="M 483.0021135548227,522.73162417156652 A 144,144 0 0,1 444.80099352464259,540.79940834543811" />
    <path d="M 431.09300637032254,544.23308037806521 A 144,144 0 0,1 388.88553179254325,546.30660064079632" />
    <path d="M 374.90699362967752,544.23308037806521 A 144,144 0 0,1 361.19900647535746,540.79940834543811" />
    <path d="M 347.89358573942707,536.03865268162531 A 144,144 0 0,1 322.9978864451773,522.73162417156652" />
    <path d="M 311.64736708043506,514.31350528423411 A 144,144 0 0,1 291.68649471576589,494.352632919565" />
    <path d="M 276.00333793383686,470.8811301029437 A 144,144 0 0,1 269.96134731837475,458.106414260573" />
    <path d="M 265.20059165456189,444.80099352464259 A 144,144 0 0,1 259.69339935920368,388.88553179254336" />
    <path d="M 265.20059165456189,361.19900647535746 A 144,144 0 0,1 276.00333793383686,335.11886989705636" />
    <path d="M 283.26837582843348,322.9978864451773 A 144,144 0 0,1 322.9978864451773,283.26837582843348" />
    <path d="M 335.1188698970563,276.00333793383692 A 144,144 0 0,1 361.19900647535741,265.20059165456189" />
    <path d="M 374.90699362967746,261.76691962193479 A 144,144 0 0,1 388.8855317925433,259.69339935920368" />
    <path d="M 261.89259770426315,327.57652210784039 A 160,160 0 0,1 403,243" />
    <path d="M 418.68274245272971,243.77044373244848 A 160,160 0 0,1 434.21445152258053,246.07435513548313" />
    <path d="M 464.22934917841434,255.17927479819412 A 160,160 0 0,1 536.0351379684073,314.10876271686362" />
    <path d="M 563,403 A 160,160 0 0,1 449.445548360714,556.1104537171534" />
    <path d="M 418.68274245272971,562.22955626755152 A 160,160 0 0,1 403,563" />
    <path d="M 387.31725754727029,562.22955626755152 A 160,160 0 0,1 371.78554847741947,559.92564486451693" />
    <path d="M 356.55445163928607,556.1104537171534 A 160,160 0 0,1 327.57652210784039,544.10740229573685" />
    <path d="M 314.10876271686368,536.0351379684073 A 160,160 0 0,1 289.86291501015239,516.13708498984761" />
    <path d="M 279.31832746196216,504.50292546618334 A 160,160 0 0,1 269.96486203159276,491.89123728313632" />
    <path d="M 249.8895462828466,449.445548360714 A 160,160 0 0,1 243,403.00000000000006" />
    <path d="M 243.77044373244848,387.3172575472704 A 160,160 0 0,1 249.88954628284657,356.55445163928607" />
    <path d="M 420.25101669800267,227.84748810569334 A 176,176 0 0,1 485.96582568137558,247.7818574746895" />
    <path d="M 514.65321801280163,266.95016020815831 A 176,176 0 0,1 558.21814252531044,320.03417431862442" />
    <path d="M 571.42149908886881,351.90989680321462 A 176,176 0 0,1 575.61820935096853,368.66410332516142" />
    <path d="M 578.1525118943066,385.74898330199733 A 176,176 0 0,1 579,403" />
    <path d="M 575.61820935096853,437.33589667483858 A 176,176 0 0,1 558.21814252531044,485.96582568137558" />
    <path d="M 485.96582568137563,558.21814252531044 A 176,176 0 0,1 470.3522840962558,565.60279772198646" />
    <path d="M 437.33589667483864,575.61820935096853 A 176,176 0 0,1 420.25101669800273,578.1525118943066" />
    <path d="M 403,579 A 176,176 0 0,1 351.90989680321468,571.42149908886881" />
    <path d="M 320.03417431862442,558.21814252531044 A 176,176 0 0,1 305.21963898855006,549.338651765248" />
    <path d="M 291.34678198719843,539.0498397918418 A 176,176 0 0,1 278.54920651116765,527.45079348883235" />
    <path d="M 256.66134823475204,500.78036101145 A 176,176 0 0,1 247.78185747468953,485.96582568137563" />
    <path d="M 240.39720227801357,470.35228409625591 A 176,176 0 0,1 234.57850091113124,454.09010319678538" />
    <path d="M 230.38179064903144,437.33589667483864 A 176,176 0 0,1 227.84748810569334,420.25101669800262" />
    <path d="M 227,403.00000000000006 A 176,176 0 0,1 227.84748810569334,385.74898330199744" />
    <path d="M 256.661348234752,305.21963898855006 A 176,176 0 0,1 335.64771590374409,240.39720227801357" />
    <path d="M 351.90989680321462,234.57850091113124 A 176,176 0 0,1 385.74898330199733,227.84748810569334" />
    <path d="M 384.18070905672437,211.9245324789382 A 192,192 0 0,1 421.81929094327563,211.9245324789382" />
    <path d="M 458.73465803285677,219.26745553941589 A 192,192 0 0,1 476.47521901409721,225.61512975783293" />
    <path d="M 493.50817347059154,233.67111724511582 A 192,192 0 0,1 538.76450198781708,267.23549801218286" />
    <path d="M 551.41800704564548,281.19648944058008 A 192,192 0 0,1 586.73254446058411,347.26534196714323" />
    <path d="M 586.73254446058411,458.73465803285671 A 192,192 0 0,1 562.64216556208874,509.66948473976356" />
    <path d="M 538.76450198781708,538.76450198781708 A 192,192 0 0,1 524.80351055941992,551.41800704564548" />
    <path d="M 509.66948473976362,562.64216556208874 A 192,192 0 0,1 403,595" />
    <path d="M 347.26534196714329,586.73254446058411 A 192,192 0 0,1 312.49182652940846,572.32888275488415" />
    <path d="M 296.33051526023644,562.64216556208874 A 192,192 0 0,1 267.23549801218292,538.76450198781708" />
    <path d="M 254.58199295435458,524.80351055942 A 192,192 0 0,1 243.35783443791132,509.66948473976362" />
    <path d="M 233.67111724511585,493.5081734705916 A 192,192 0 0,1 225.615129757833,476.47521901409732" />
    <path d="M 219.26745553941589,458.73465803285677 A 192,192 0 0,1 214.68922616257976,440.45734182709668" />
    <path d="M 211.9245324789382,421.81929094327563 A 192,192 0 0,1 211,403.00000000000006" />
    <path d="M 219.26745553941589,347.26534196714329 A 192,192 0 0,1 281.19648944057997,254.58199295435458" />
    <path d="M 296.33051526023638,243.35783443791132 A 192,192 0 0,1 312.4918265294084,233.67111724511585" />
    <path d="M 329.52478098590262,225.615129757833 A 192,192 0 0,1 365.54265817290332,214.68922616257976" />
    <path d="M 423.38756518854859,196.00157685218304 A 208,208 0 0,1 443.57878697935467,198.99666167612807" />
    <path d="M 482.59815393193867,210.83305723765236 A 208,208 0 0,1 501.05052125980751,219.56037701554214" />
    <path d="M 550.07821048680194,255.92178951319812 A 208,208 0 0,1 563.78617429944927,271.04619689396173" />
    <path d="M 586.43962298445786,304.94947874019249 A 208,208 0 0,1 595.16694276234762,323.40184606806133" />
    <path d="M 602.0435898322994,342.62078713107184 A 208,208 0 0,1 609.998423147817,423.38756518854859" />
    <path d="M 607.003338323872,443.57878697935467 A 208,208 0 0,1 602.0435898322994,463.37921286892811" />
    <path d="M 595.16694276234762,482.59815393193867 A 208,208 0 0,1 586.43962298445786,501.05052125980751" />
    <path d="M 534.95380310603832,563.78617429944927 A 208,208 0 0,1 482.59815393193867,595.16694276234762" />
    <path d="M 443.57878697935473,607.003338323872 A 208,208 0 0,1 342.62078713107189,602.0435898322994" />
    <path d="M 304.94947874019249,586.43962298445786 A 208,208 0 0,1 287.44139153192282,575.94567935892951" />
    <path d="M 219.56037701554217,501.05052125980757 A 208,208 0 0,1 210.83305723765241,482.59815393193878" />
    <path d="M 198.99666167612807,443.57878697935473 A 208,208 0 0,1 196.00157685218304,423.38756518854859" />
    <path d="M 195,403.00000000000006 A 208,208 0 0,1 198.99666167612807,362.42121302064533" />
    <path d="M 210.83305723765238,323.40184606806127 A 208,208 0 0,1 230.05432064107055,287.44139153192282" />
    <path d="M 242.21382570055073,271.04619689396168 A 208,208 0 0,1 271.04619689396168,242.21382570055079" />
    <path d="M 304.94947874019243,219.56037701554217 A 208,208 0 0,1 323.40184606806122,210.83305723765241" />
    <path d="M 362.42121302064521,198.9966616761281 A 208,208 0 0,1 382.61243481145141,196.00157685218304" />
    <path d="M 337.97623229500039,188.64536479598522 A 224,224 0 0,1 403,179" />
    <path d="M 424.95583943382155,180.0786212254279 A 224,224 0 0,1 488.72108884978013,196.05098471747178" />
    <path d="M 508.59286904902348,205.44963678596847 A 224,224 0 0,1 600.55036321403145,297.40713095097647" />
    <path d="M 609.94901528252819,317.27891115021987 A 224,224 0 0,1 576.15434155325306,545.1040956526565" />
    <path d="M 561.39191898578667,561.39191898578656 A 224,224 0 0,1 545.10409565265661,576.15434155325306" />
    <path d="M 527.44773219639092,589.24919315577017 A 224,224 0 0,1 508.59286904902353,600.55036321403145" />
    <path d="M 488.72108884978013,609.94901528252819 A 224,224 0 0,1 446.70023213161278,622.69590281032356" />
    <path d="M 403,627 A 224,224 0 0,1 359.29976786838722,622.69590281032356" />
    <path d="M 337.9762322950005,617.35463520401481 A 224,224 0 0,1 317.27891115021993,609.94901528252831" />
    <path d="M 297.40713095097652,600.55036321403156 A 224,224 0 0,1 260.89590434734345,576.15434155325306" />
    <path d="M 244.60808101421338,561.39191898578667 A 224,224 0 0,1 205.44963678596849,508.59286904902353" />
    <path d="M 196.05098471747181,488.72108884978024 A 224,224 0 0,1 188.64536479598522,468.02376770499961" />
    <path d="M 180.0786212254279,424.95583943382155 A 224,224 0 0,1 179,403.00000000000006" />
    <path d="M 183.30409718967638,359.29976786838728 A 224,224 0 0,1 229.84565844674694,260.89590434734339" />
    <path d="M 260.89590434734328,229.845658446747 A 224,224 0 0,1 278.55226780360908,216.75080684422986" />
    <path d="M 379.47588632090549,164.15566559867276 A 240,240 0 0,1 426.52411367909457,164.15566559867276" />
    <path d="M 494.84402376762154,181.26891219729117 A 240,240 0 0,1 536.33685592470454,203.44729304738914" />
    <path d="M 555.2543881992749,217.47749119294312 A 240,240 0 0,1 572.70562748477141,233.29437251522859" />
    <path d="M 588.52250880705685,250.74561180072507 A 240,240 0 0,1 624.73108780270877,311.15597623237846" />
    <path d="M 641.84433440132727,379.47588632090543 A 240,240 0 0,1 632.66568057573011,472.66832254107089" />
    <path d="M 555.2543881992749,588.52250880705685 A 240,240 0 0,1 536.33685592470454,602.55270695261083" />
    <path d="M 449.82167728387088,638.38846729677527 A 240,240 0 0,1 379.47588632090549,641.84433440132727" />
    <path d="M 356.17832271612917,638.38846729677527 A 240,240 0 0,1 269.66314407529558,602.552706952611" />
    <path d="M 217.47749119294321,555.254388199275 A 240,240 0 0,1 173.33431942426986,472.668322541071" />
    <path d="M 163,403.00000000000006 A 240,240 0 0,1 164.15566559867273,379.4758863209056" />
    <path d="M 167.6115327032247,356.17832271612923 A 240,240 0 0,1 181.2689121972912,311.15597623237841" />
    <path d="M 203.44729304738908,269.66314407529558 A 240,240 0 0,1 233.29437251522856,233.29437251522865" />
    <path d="M 311.15597623237829,181.26891219729123 A 240,240 0 0,1 356.17832271612912,167.61153270322473" />
    <path d="M 377.90761207563253,148.23270997191759 A 256,256 0 0,1 452.94312243612882,151.918968216773" />
    <path d="M 477.31287737714234,158.02327405255454 A 256,256 0 0,1 523.67756462745535,177.22815632682111" />
    <path d="M 545.22597965301816,190.14377925054842 A 256,256 0 0,1 565.4046807458933,205.10932393913933" />
    <path d="M 615.85622074945161,260.77402034698184 A 256,256 0 0,1 628.77184367317886,282.32243537254453" />
    <path d="M 647.97672594744552,477.31287737714229 A 256,256 0 0,1 628.77184367317886,523.67756462745547" />
    <path d="M 584.01933598375615,584.01933598375615 A 256,256 0 0,1 565.4046807458933,600.89067606086064" />
    <path d="M 545.22597965301816,615.85622074945161 A 256,256 0 0,1 477.3128773771424,647.9767259474454" />
    <path d="M 428.09238792436759,657.76729002808236 A 256,256 0 0,1 377.90761207563247,657.76729002808247" />
    <path d="M 260.7740203469819,615.85622074945161 A 256,256 0 0,1 190.14377925054842,545.22597965301816" />
    <path d="M 166.48683967711065,500.96695868546311 A 256,256 0 0,1 151.91896821677304,452.94312243612893" />
    <path d="M 148.23270997191759,377.90761207563264 A 256,256 0 0,1 151.918968216773,353.05687756387113" />
    <path d="M 166.48683967711062,305.03304131453694 A 256,256 0 0,1 177.22815632682111,282.32243537254465" />
    <path d="M 221.98066401624379,221.98066401624388 A 256,256 0 0,1 282.32243537254453,177.22815632682116" />
    <path d="M 305.03304131453683,166.48683967711065 A 256,256 0 0,1 328.6871226228576,158.02327405255454" />
    <path d="M 311.36595987731619,146.90001427021832 A 272,272 0 0,1 456.06456758838686,136.22640373032129" />
    <path d="M 469.0906089336878,139.15149913108405 A 272,272 0 0,1 507.0898936033044,151.70476715693" />
    <path d="M 519.29498541303678,157.11491227042342 A 272,272 0 0,1 554.11510338133178,176.8402654537077" />
    <path d="M 565.03021082194186,184.52755143726458 A 272,272 0 0,1 595.33304448274089,210.66695551725906" />
    <path d="M 604.53870609654882,220.335964281611 A 272,272 0 0,1 629.15973454629227,251.88489661866819" />
    <path d="M 636.302181920074,263.1640535794437 A 272,272 0 0,1 666.848500868916,336.9093910663122" />
    <path d="M 669.77359626967871,349.93543241161308 A 272,272 0 0,1 672.05601071042042,363.08931094814159" />
    <path d="M 674.672364087807,389.65359258294228 A 272,272 0 0,1 675,403" />
    <path d="M 674.672364087807,416.34640741705772 A 272,272 0 0,1 673.69024565483755,429.66066216964049" />
    <path d="M 672.05601071042042,442.91068905185836 A 272,272 0 0,1 666.848500868916,469.0906089336878" />
    <path d="M 659.09998572978168,494.63404012268381 A 272,272 0 0,1 648.88508772957664,519.29498541303667" />
    <path d="M 636.302181920074,542.8359464205563 A 272,272 0 0,1 629.15973454629238,554.11510338133178" />
    <path d="M 621.47244856273539,565.03021082194186 A 272,272 0 0,1 613.25884331466455,575.55497329251148" />
    <path d="M 604.53870609654882,585.664035718389 A 272,272 0 0,1 595.33304448274089,595.33304448274089" />
    <path d="M 575.55497329251159,613.25884331466443 A 272,272 0 0,1 542.8359464205563,636.302181920074" />
    <path d="M 519.29498541303667,648.88508772957653 A 272,272 0 0,1 494.63404012268393,659.09998572978157" />
    <path d="M 481.95743221321379,663.28777131916081 A 272,272 0 0,1 416.34640741705766,674.672364087807" />
    <path d="M 403.00000000000006,675 A 272,272 0 0,1 376.33933783035951,673.69024565483755" />
    <path d="M 363.08931094814164,672.05601071042042 A 272,272 0 0,1 274.78008758332862,642.88258390275257" />
    <path d="M 240.96978917805816,621.47244856273539 A 272,272 0 0,1 169.697818079926,542.8359464205563" />
    <path d="M 151.70476715693008,507.08989360330457 A 272,272 0 0,1 146.90001427021832,494.63404012268381" />
    <path d="M 142.71222868083919,481.95743221321379 A 272,272 0 0,1 131.3276359121931,416.34640741705772" />
    <path d="M 131,403.00000000000006 A 272,272 0 0,1 132.30975434516245,376.33933783035968" />
    <path d="M 133.94398928957958,363.08931094814153 A 272,272 0 0,1 151.70476715693002,298.91010639669554" />
    <path d="M 157.11491227042342,286.70501458696322 A 272,272 0 0,1 176.84026545370764,251.88489661866828" />
    <path d="M 184.52755143726449,240.96978917805825 A 272,272 0 0,1 263.16405357944365,169.697818079926" />
    <path d="M 274.78008758332857,163.11741609724749 A 272,272 0 0,1 298.91010639669543,151.70476715693008" />
    <path d="M 360.74162335685565,118.11716513014312 A 288,288 0 0,1 431.22893641491345,116.38679871840731" />
    <path d="M 459.18601274064497,120.53383924386964 A 288,288 0 0,1 472.97829181214,123.63099907997133" />
    <path d="M 486.60198704928519,127.40118330912384 A 288,288 0 0,1 500.02427777695937,131.83530922729" />
    <path d="M 513.21282852114587,136.92269463674944 A 288,288 0 0,1 551.06159032764788,155.97416031992162" />
    <path d="M 563.0042271096454,163.53675165686695 A 288,288 0 0,1 616.3939241022282,209.59102100405872" />
    <path d="M 625.62701056846822,220.29473416087009 A 288,288 0 0,1 650.02583968007832,254.93840967235215" />
    <path d="M 656.99332413232628,267.2377397941126 A 288,288 0 0,1 678.59881669087622,319.39801295071487" />
    <path d="M 687.88283486985688,360.74162335685583 A 288,288 0 0,1 689.61320128159264,374.77106358508649" />
    <path d="M 690.65309138708972,388.86850979370359 A 288,288 0 0,1 690.65309138708972,417.13149020629641" />
    <path d="M 682.36900092002861,472.97829181214 A 288,288 0 0,1 669.07730536325062,513.21282852114587" />
    <path d="M 663.34891641955164,526.13586690792113 A 288,288 0 0,1 656.99332413232628,538.76226020588729" />
    <path d="M 642.463248343133,563.0042271096454 A 288,288 0 0,1 634.32376906642571,574.56139969382082" />
    <path d="M 625.62701056846822,585.70526583912988 A 288,288 0 0,1 616.3939241022282,596.40897899594131" />
    <path d="M 596.40897899594142,616.3939241022282 A 288,288 0 0,1 538.7622602058874,656.99332413232628" />
    <path d="M 486.60198704928519,678.59881669087622 A 288,288 0 0,1 459.186012740645,685.46616075613042" />
    <path d="M 445.25837664314417,687.88283486985688 A 288,288 0 0,1 431.22893641491351,689.61320128159264" />
    <path d="M 388.86850979370371,690.65309138708972 A 288,288 0 0,1 360.74162335685588,687.88283486985688" />
    <path d="M 346.81398725935503,685.46616075613042 A 288,288 0 0,1 305.97572222304063,674.16469077271" />
    <path d="M 279.86413309207882,663.34891641955164 A 288,288 0 0,1 220.29473416087015,625.62701056846822" />
    <path d="M 209.59102100405869,616.3939241022282 A 288,288 0 0,1 189.60607589777183,596.40897899594142" />
    <path d="M 180.37298943153184,585.70526583913 A 288,288 0 0,1 171.67623093357423,574.5613996938207" />
    <path d="M 163.53675165686695,563.0042271096454 A 288,288 0 0,1 131.83530922729,500.02427777695937" />
    <path d="M 120.53383924386964,459.18601274064508 A 288,288 0 0,1 116.38679871840731,431.22893641491339" />
    <path d="M 115.34690861291034,417.13149020629641 A 288,288 0 0,1 115,403.00000000000006" />
    <path d="M 115.34690861291034,388.86850979370371 A 288,288 0 0,1 118.11716513014306,360.74162335685577" />
    <path d="M 123.63099907997133,333.02170818786004 A 288,288 0 0,1 131.83530922729,305.97572222304075" />
    <path d="M 136.92269463674944,292.78717147885408 A 288,288 0 0,1 142.65108358044836,279.86413309207876" />
    <path d="M 149.00667586767375,267.23773979411271 A 288,288 0 0,1 180.37298943153178,220.29473416087006" />
    <path d="M 199.35324701827426,199.35324701827435 A 288,288 0 0,1 242.99577289035457,163.53675165686698" />
    <path d="M 254.93840967235209,155.97416031992168 A 288,288 0 0,1 267.2377397941126,149.00667586767381" />
    <path d="M 279.86413309207865,142.65108358044836 A 288,288 0 0,1 292.78717147885396,136.9226946367495" />
    <path d="M 319.39801295071481,127.40118330912384 A 288,288 0 0,1 346.81398725935492,120.53383924386964" />
    <path d="M 373.20278933981359,100.46384309165217 A 304,304 0 0,1 403,99" />
    <path d="M 432.79721066018641,100.46384309165217 A 304,304 0 0,1 447.60606423443,102.29034097070661" />
    <path d="M 462.307457892903,104.84127475741792 A 304,304 0 0,1 546.30460799510331,134.89593563810007" />
    <path d="M 571.89335083795913,150.23323786002624 A 304,304 0 0,1 607.15392227349355,177.75085789209243" />
    <path d="M 617.96046148071048,188.03953851928955 A 304,304 0 0,1 637.995177822272,210.14444161425175" />
    <path d="M 647.175089570116,221.90741143430023 A 304,304 0 0,1 671.10406436189987,259.69539200489669" />
    <path d="M 683.85937788343119,286.66423656101267 A 304,304 0 0,1 697.88950097114139,329.13402530940778" />
    <path d="M 701.158725242582,343.692542107097 A 304,304 0 0,1 703.70965902929333,358.39393576557" />
    <path d="M 706.63381868637248,388.08342700446491 A 304,304 0 0,1 707,403" />
    <path d="M 706.63381868637248,417.91657299553509 A 304,304 0 0,1 701.158725242582,462.30745789290296" />
    <path d="M 693.90986206259151,491.24654188535652 A 304,304 0 0,1 689.22939581563833,505.41451543123486" />
    <path d="M 683.85937788343119,519.33576343898721 A 304,304 0 0,1 677.81274510952676,532.9767484028057" />
    <path d="M 671.10406436189987,546.30460799510331 A 304,304 0 0,1 663.74949744008268,559.28723423473934" />
    <path d="M 647.175089570116,584.09258856569977 A 304,304 0 0,1 637.99517782227213,595.85555838574817" />
    <path d="M 628.24914210790757,607.15392227349366 A 304,304 0 0,1 607.15392227349366,628.24914210790757" />
    <path d="M 584.09258856569977,647.175089570116 A 304,304 0 0,1 571.893350837959,655.76676213997371" />
    <path d="M 546.30460799510331,671.10406436189987 A 304,304 0 0,1 505.414515431235,689.22939581563833" />
    <path d="M 476.86597469059228,697.88950097114139 A 304,304 0 0,1 417.91657299553503,706.63381868637248" />
    <path d="M 388.083427004465,706.63381868637248 A 304,304 0 0,1 373.20278933981359,705.53615690834783" />
    <path d="M 358.39393576557006,703.70965902929345 A 304,304 0 0,1 329.13402530940778,697.88950097114139" />
    <path d="M 314.75345811464354,693.90986206259151 A 304,304 0 0,1 300.58548456876508,689.22939581563833" />
    <path d="M 286.66423656101273,683.85937788343119 A 304,304 0 0,1 273.0232515971943,677.81274510952676" />
    <path d="M 246.71276576526066,663.74949744008268 A 304,304 0 0,1 234.106649162041,655.76676213997382" />
    <path d="M 177.75085789209251,607.15392227349366 A 304,304 0 0,1 150.23323786002624,571.893350837959" />
    <path d="M 134.89593563810013,546.30460799510342 A 304,304 0 0,1 128.1872548904733,532.97674840280592" />
    <path d="M 116.77060418436167,505.41451543123486 A 304,304 0 0,1 108.11049902885867,476.86597469059228" />
    <path d="M 102.29034097070661,447.60606423443016 A 304,304 0 0,1 99,403.00000000000006" />
    <path d="M 99.366181313627578,388.083427004465 A 304,304 0 0,1 100.46384309165211,373.20278933981376" />
    <path d="M 108.11049902885861,329.13402530940783 A 304,304 0 0,1 112.09013793740849,314.75345811464354" />
    <path d="M 116.77060418436162,300.58548456876525 A 304,304 0 0,1 122.14062211656886,286.66423656101267" />
    <path d="M 128.18725489047324,273.02325159719419 A 304,304 0 0,1 134.89593563810007,259.69539200489675" />
    <path d="M 150.23323786002618,234.10664916204104 A 304,304 0 0,1 168.004822177728,210.14444161425175" />
    <path d="M 198.84607772650631,177.75085789209251 A 304,304 0 0,1 221.90741143430032,158.82491042988391" />
    <path d="M 246.71276576526054,142.25050255991732 A 304,304 0 0,1 329.13402530940766,108.11049902885867" />
    <path d="M 343.69254210709687,104.84127475741798 A 304,304 0 0,1 358.39393576556984,102.29034097070661" />
    <path d="M 418.70165578477378,83.385454014344816 A 320,320 0 0,1 434.36548490545937,84.540887464896969" />
    <path d="M 480.75365756904444,92.58999897774595 A 320,320 0 0,1 495.89109672142797,96.77909256569319" />
    <path d="M 510.80475308551041,101.70589914143335 A 320,320 0 0,1 525.45869835682868,107.35854959638823" />
    <path d="M 553.84695578431922,120.78519540852636 A 320,320 0 0,1 567.51287814183092,128.52684479991291" />
    <path d="M 593.62377743757861,145.97358992619365 A 320,320 0 0,1 606.00585093236657,155.63665492392417" />
    <path d="M 617.8988655510459,165.89563988641308 A 320,320 0 0,1 629.27416997969522,176.72583002030478" />
    <path d="M 640.104360113587,188.10113444895413 A 320,320 0 0,1 660.02641007380635,212.3762225624213" />
    <path d="M 669.07027593681448,225.21752543372728 A 320,320 0 0,1 677.47315520008715,238.48712185816905" />
    <path d="M 685.21480459147358,252.15304421568072 A 320,320 0 0,1 692.27657379950188,266.18237010230973" />
    <path d="M 709.22090743430681,310.10890327857203 A 320,320 0 0,1 713.410001022254,325.24634243095551" />
    <path d="M 719.5364831887299,356.04624817428424 A 320,320 0 0,1 721.459112535103,371.63451509454057" />
    <path d="M 722.61454598565524,387.29834421522622 A 320,320 0 0,1 719.5364831887299,449.9537518257157" />
    <path d="M 704.29410085856671,510.80475308551036 A 320,320 0 0,1 698.64145040361177,525.45869835682868" />
    <path d="M 692.27657379950188,539.81762989769027 A 320,320 0 0,1 685.21480459147358,553.84695578431922" />
    <path d="M 669.0702759368146,580.78247456627264 A 320,320 0 0,1 650.3633450760758,606.00585093236646" />
    <path d="M 629.27416997969522,629.27416997969522 A 320,320 0 0,1 617.8988655510459,640.10436011358684" />
    <path d="M 606.00585093236657,650.3633450760758 A 320,320 0 0,1 593.62377743757872,660.02641007380635" />
    <path d="M 510.80475308551047,704.29410085856659 A 320,320 0 0,1 434.36548490545948,721.459112535103" />
    <path d="M 418.70165578477378,722.61454598565524 A 320,320 0 0,1 387.29834421522634,722.61454598565524" />
    <path d="M 371.63451509454063,721.459112535103 A 320,320 0 0,1 356.0462481742843,719.5364831887299" />
    <path d="M 325.24634243095556,713.41000102225416 A 320,320 0 0,1 310.10890327857214,709.22090743430681" />
    <path d="M 295.19524691448959,704.29410085856671 A 320,320 0 0,1 212.37622256242136,660.02641007380635" />
    <path d="M 199.99414906763352,650.36334507607592 A 320,320 0 0,1 188.1011344489541,640.10436011358684" />
    <path d="M 155.63665492392428,606.00585093236668 A 320,320 0 0,1 120.78519540852642,553.84695578431933" />
    <path d="M 96.77909256569319,495.89109672142797 A 320,320 0 0,1 86.4635168112701,449.95375182571593" />
    <path d="M 83,403.00000000000006 A 320,320 0 0,1 83.385454014344816,387.29834421522634" />
    <path d="M 84.540887464896969,371.6345150945408 A 320,320 0 0,1 89.148710270966262,340.57109695483894" />
    <path d="M 96.779092565693134,310.10890327857214 A 320,320 0 0,1 128.52684479991291,238.48712185816913" />
    <path d="M 176.72583002030476,176.72583002030484 A 320,320 0 0,1 199.99414906763332,155.63665492392428" />
    <path d="M 212.37622256242136,145.9735899261936 A 320,320 0 0,1 252.15304421568067,120.78519540852642" />
    <path d="M 266.18237010230962,113.72342620049818 A 320,320 0 0,1 280.5413016431711,107.35854959638834" />
    <path d="M 325.24634243095545,92.58999897774595 A 320,320 0 0,1 340.57109695483882,89.148710270966262" />
    <path d="M 356.046248174284,86.4635168112701 A 320,320 0 0,1 387.29834421522622,83.385454014344816" />
    <path d="M 337.44965180258077,73.4561457845146 A 336,336 0 0,1 419.48673857401246,67.404726715062054" />
    <path d="M 452.30143941700157,70.636692651833584 A 336,336 0 0,1 484.64134044749665,77.06949892663323" />
    <path d="M 500.53565155749936,81.468047193977839 A 336,336 0 0,1 516.19499073978591,86.641194098505025" />
    <path d="M 531.58163327467014,92.576477076207652 A 336,336 0 0,1 575.7385220489225,114.80318703990855" />
    <path d="M 589.67159829458637,123.6262102663448 A 336,336 0 0,1 603.15496630945768,133.12226942250334" />
    <path d="M 628.64380882859814,154.04042188073373 A 336,336 0 0,1 662.73151232987959,189.84385652101511" />
    <path d="M 672.87773057749666,202.84503369054238 A 336,336 0 0,1 724.53195280602222,305.46434844250064" />
    <path d="M 728.93050107336671,321.3586595525033 A 336,336 0 0,1 735.36330734816647,353.69856058299843" />
    <path d="M 737.38206816185811,370.06624084926756 A 336,336 0 0,1 737.38206816185811,435.93375915073239" />
    <path d="M 735.36330734816647,452.30143941700152 A 336,336 0 0,1 728.93050107336671,484.64134044749665" />
    <path d="M 713.42352292379235,531.58163327467014 A 336,336 0 0,1 706.740402489477,546.65851139257472" />
    <path d="M 699.32554482104729,561.38930357353524 A 336,336 0 0,1 691.19681296009139,575.7385220489225" />
    <path d="M 672.87773057749678,603.15496630945756 A 336,336 0 0,1 651.95957811926621,628.64380882859814" />
    <path d="M 628.64380882859825,651.95957811926621 A 336,336 0 0,1 616.15614347898486,662.73151232987971" />
    <path d="M 603.15496630945768,672.87773057749666 A 336,336 0 0,1 589.67159829458637,682.37378973365526" />
    <path d="M 561.38930357353524,699.32554482104729 A 336,336 0 0,1 546.65851139257472,706.740402489477" />
    <path d="M 531.58163327467014,713.42352292379235 A 336,336 0 0,1 435.93375915073244,737.38206816185811" />
    <path d="M 403.00000000000006,739 A 336,336 0 0,1 370.06624084926761,737.38206816185811" />
    <path d="M 337.44965180258089,732.54385421548545 A 336,336 0 0,1 305.46434844250075,724.53195280602222" />
    <path d="M 274.41836672532986,713.42352292379235 A 336,336 0 0,1 244.61069642646481,699.32554482104729" />
    <path d="M 202.84503369054241,672.87773057749678 A 336,336 0 0,1 143.26848767012046,616.156143478985" />
    <path d="M 123.6262102663448,589.67159829458637 A 336,336 0 0,1 114.80318703990861,575.7385220489225" />
    <path d="M 106.67445517895277,561.38930357353524 A 336,336 0 0,1 86.641194098505025,516.19499073978591" />
    <path d="M 70.636692651833641,452.30143941700175 A 336,336 0 0,1 67,403.00000000000006" />
    <path d="M 67.404726715062054,386.51326142598765 A 336,336 0 0,1 70.636692651833584,353.69856058299837" />
    <path d="M 73.456145784514547,337.44965180258089 A 336,336 0 0,1 77.06949892663323,321.35865955250335" />
    <path d="M 86.641194098504968,289.80500926021421 A 336,336 0 0,1 92.576477076207709,274.41836672532975" />
    <path d="M 99.259597510523065,259.34148860742516 A 336,336 0 0,1 106.67445517895271,244.61069642646481" />
    <path d="M 114.80318703990855,230.26147795107758 A 336,336 0 0,1 165.41212152132,165.41212152132007" />
    <path d="M 189.84385652101497,143.26848767012052 A 336,336 0 0,1 202.84503369054244,133.12226942250328" />
    <path d="M 216.32840170541365,123.6262102663448 A 336,336 0 0,1 230.26147795107744,114.80318703990861" />
    <path d="M 244.6106964264647,106.67445517895277 A 336,336 0 0,1 259.34148860742505,99.259597510523122" />
    <path d="M 274.41836672532963,92.576477076207709 A 336,336 0 0,1 289.80500926021409,86.641194098505025" />
    <path d="M 305.46434844250064,81.468047193977839 A 336,336 0 0,1 321.35865955250324,77.06949892663323" />
    <path d="M 385.72817863674885,51.423999415779292 A 352,352 0 0,1 403,51" />
    <path d="M 437.50203339600534,52.694976211386688 A 352,352 0 0,1 454.64912700828734,54.809868492397072" />
    <path d="M 471.67179334967716,57.763581298062888 A 352,352 0 0,1 505.18020639357076,66.157001822262487" />
    <path d="M 521.58522839406146,71.5764890555767 A 352,352 0 0,1 537.7045681925116,77.794404556027075" />
    <path d="M 583.96416595601409,101.07952927990419 A 352,352 0 0,1 598.5607220229,110.32269646950408" />
    <path d="M 612.68615518133652,120.27094891881302 A 352,352 0 0,1 626.30643602560326,130.90032041631656" />
    <path d="M 651.90158697766469,154.09841302233525 A 352,352 0 0,1 663.81479612494559,166.61124789384954" />
    <path d="M 675.09967958368338,179.69356397439677 A 352,352 0 0,1 713.43628505062088,237.06834863724879" />
    <path d="M 721.20423117945211,252.50060711254068 A 352,352 0 0,1 728.20559544397292,268.2954318074884" />
    <path d="M 734.42351094442324,284.41477160593854 A 352,352 0 0,1 744.45100112447949,317.47097667405109" />
    <path d="M 748.236418701937,334.32820665032284 A 352,352 0 0,1 753.30502378861331,368.4979666039946" />
    <path d="M 753.30502378861331,437.50203339600534 A 352,352 0 0,1 751.19013150760293,454.64912700828728" />
    <path d="M 748.236418701937,471.67179334967716 A 352,352 0 0,1 728.20559544397292,537.7045681925116" />
    <path d="M 721.20423117945211,553.49939288745918 A 352,352 0 0,1 675.09967958368338,626.30643602560315" />
    <path d="M 639.3887521061506,663.81479612494559 A 352,352 0 0,1 612.68615518133652,685.729051081187" />
    <path d="M 598.56072202289988,695.67730353049592 A 352,352 0 0,1 568.93165136275127,713.43628505062088" />
    <path d="M 553.49939288745929,721.20423117945211 A 352,352 0 0,1 521.58522839406157,734.42351094442324" />
    <path d="M 505.18020639357076,739.84299817773751 A 352,352 0 0,1 488.52902332594897,744.45100112447949" />
    <path d="M 420.27182136325115,754.57600058422076 A 352,352 0 0,1 403.00000000000006,755" />
    <path d="M 368.49796660399466,753.30502378861331 A 352,352 0 0,1 284.41477160593854,734.42351094442324" />
    <path d="M 252.50060711254079,721.20423117945211 A 352,352 0 0,1 193.31384481866348,685.729051081187" />
    <path d="M 179.69356397439685,675.0996795836835 A 352,352 0 0,1 120.27094891881296,612.68615518133652" />
    <path d="M 101.07952927990425,583.96416595601409 A 352,352 0 0,1 84.795768820548,553.49939288745941" />
    <path d="M 57.763581298062888,471.67179334967727 A 352,352 0 0,1 54.809868492397129,454.64912700828756" />
    <path d="M 52.694976211386688,437.50203339600529 A 352,352 0 0,1 51,403.00000000000006" />
    <path d="M 51.423999415779292,385.72817863674896 A 352,352 0 0,1 52.694976211386688,368.49796660399483" />
    <path d="M 61.54899887552051,317.47097667405114 A 352,352 0 0,1 66.15700182226243,300.81979360642936" />
    <path d="M 71.576489055576644,284.41477160593871 A 352,352 0 0,1 84.795768820547949,252.50060711254068" />
    <path d="M 92.563714949379,237.06834863724885 A 352,352 0 0,1 101.07952927990419,222.03583404398603" />
    <path d="M 120.27094891881285,193.31384481866363 A 352,352 0 0,1 130.90032041631662,179.69356397439674" />
    <path d="M 154.09841302233522,154.09841302233534 A 352,352 0 0,1 179.69356397439663,130.90032041631673" />
    <path d="M 193.31384481866351,120.27094891881296 A 352,352 0 0,1 207.4392779771,110.32269646950408" />
    <path d="M 222.03583404398592,101.07952927990425 A 352,352 0 0,1 237.06834863724873,92.563714949379062" />
    <path d="M 439.0703076412783,36.772020584631548 A 368,368 0 0,1 474.79323850193521,42.071016811611173" />
    <path d="M 492.41670620440112,46.028498824407791 A 368,368 0 0,1 560.34027438234375,70.331940130572832" />
    <path d="M 607.44984575121362,97.019182672663362 A 368,368 0 0,1 622.21734405321547,107.4196284151227" />
    <path d="M 650.13369538370273,130.32998586937504 A 368,368 0 0,1 663.21529547664954,142.78470452335051" />
    <path d="M 675.670014130625,155.86630461629724 A 368,368 0 0,1 742.9876679641535,262.17249688964694" />
    <path d="M 759.97150117559215,313.58329379559882 A 368,368 0 0,1 767.01695566703938,349.0031854004269" />
    <path d="M 770.55672788350341,384.94309584751011 A 368,368 0 0,1 771,403" />
    <path d="M 770.55672788350341,421.05690415248984 A 368,368 0 0,1 763.92898318838888,474.79323850193521" />
    <path d="M 759.97150117559227,492.41670620440112 A 368,368 0 0,1 749.48821598735162,526.9754660483369" />
    <path d="M 718.64412848010011,592.18980986310555 A 368,368 0 0,1 636.45672857222155,687.46784683748729" />
    <path d="M 622.21734405321558,698.5803715848773 A 368,368 0 0,1 607.44984575121362,708.98081732733669" />
    <path d="M 576.47399915196718,727.54702528019459 A 368,368 0 0,1 543.82750311035306,742.9876679641535" />
    <path d="M 526.975466048337,749.48821598735162 A 368,368 0 0,1 509.82476122964215,755.15404354945281" />
    <path d="M 492.41670620440118,759.97150117559215 A 368,368 0 0,1 474.79323850193532,763.92898318838877" />
    <path d="M 439.07030764127836,769.22797941536851 A 368,368 0 0,1 403.00000000000006,771" />
    <path d="M 384.94309584751028,770.55672788350353 A 368,368 0 0,1 366.9296923587217,769.22797941536851" />
    <path d="M 349.00318540042696,767.01695566703938 A 368,368 0 0,1 313.58329379559893,759.97150117559227" />
    <path d="M 245.65972561765628,735.66805986942722 A 368,368 0 0,1 229.52600084803288,727.5470252801947" />
    <path d="M 169.54327142777854,687.46784683748729 A 368,368 0 0,1 155.86630461629721,675.670014130625" />
    <path d="M 142.78470452335057,663.21529547664954 A 368,368 0 0,1 130.32998586937515,650.13369538370284" />
    <path d="M 97.019182672663362,607.44984575121362 A 368,368 0 0,1 63.012332035846555,543.82750311035329" />
    <path d="M 38.983044332960617,456.99681459957333 A 368,368 0 0,1 35.443272116496587,421.05690415248984" />
    <path d="M 35,403.00000000000006 A 368,368 0 0,1 35.44327211649653,384.94309584751028" />
    <path d="M 42.071016811611173,331.20676149806479 A 368,368 0 0,1 46.028498824407791,313.58329379559893" />
    <path d="M 50.845956450547078,296.17523877035796 A 368,368 0 0,1 63.0123320358465,262.17249688964688" />
    <path d="M 70.331940130572889,245.65972561765616 A 368,368 0 0,1 107.41962841512253,183.7826559467847" />
    <path d="M 155.86630461629713,130.32998586937515 A 368,368 0 0,1 229.52600084803277,78.452974719805411" />
    <path d="M 245.65972561765602,70.331940130572946 A 368,368 0 0,1 296.17523877035779,50.845956450547135" />
    <path d="M 366.92969235872175,36.772020584631548 A 368,368 0 0,1 384.94309584751016,35.443272116496587" />
    <path d="M 384.15801305827148,19.462544817213825 A 384,384 0 0,1 403,19" />
    <path d="M 421.84198694172852,19.462544817213825 A 384,384 0 0,1 440.63858188655126,20.849064957876408" />
    <path d="M 459.34450219085892,23.156220173524105 A 384,384 0 0,1 496.30438908285333,30.507998773295128" />
    <path d="M 532.36570370261256,41.447078969719996 A 384,384 0 0,1 549.95043802819441,48.230259515665864" />
    <path d="M 567.18115587722832,55.868111440597772 A 384,384 0 0,1 600.41545377019713,73.632213759895535" />
    <path d="M 616.33896947952724,83.715668875822644 A 384,384 0 0,1 699.836014091291,159.3929788811601" />
    <path d="M 711.43169208856762,174.25146707490558 A 384,384 0 0,1 750.13188855940223,238.81884412277165" />
    <path d="M 764.55292103028,273.63429629738749 A 384,384 0 0,1 775.49200122670482,309.69561091714661" />
    <path d="M 782.84377982647584,346.65549780914108 A 384,384 0 0,1 785.15093504212359,365.36141811344868" />
    <path d="M 787,403 A 384,384 0 0,1 786.53745518278618,421.84198694172852" />
    <path d="M 782.84377982647584,459.34450219085886 A 384,384 0 0,1 779.62154767484049,477.91468365419325" />
    <path d="M 764.55292103028,532.36570370261245 A 384,384 0 0,1 757.76974048433408,549.95043802819441" />
    <path d="M 741.6577655097683,584.01634694118309 A 384,384 0 0,1 722.28433112417747,616.33896947952712" />
    <path d="M 711.43169208856762,631.74853292509442 A 384,384 0 0,1 687.52523213630434,660.87863866125508" />
    <path d="M 646.60702111883984,699.836014091291 A 384,384 0 0,1 616.33896947952724,722.28433112417747" />
    <path d="M 600.41545377019713,732.36778624010446 A 384,384 0 0,1 584.0163469411832,741.6577655097683" />
    <path d="M 549.95043802819453,757.76974048433408 A 384,384 0 0,1 496.30438908285339,775.49200122670482" />
    <path d="M 477.91468365419337,779.62154767484049 A 384,384 0 0,1 384.15801305827159,786.53745518278629" />
    <path d="M 365.36141811344874,785.15093504212359 A 384,384 0 0,1 346.65549780914114,782.84377982647584" />
    <path d="M 328.08531634580675,779.62154767484049 A 384,384 0 0,1 256.04956197180559,757.76974048433408" />
    <path d="M 221.98365305881691,741.6577655097683 A 384,384 0 0,1 205.58454622980293,732.36778624010458" />
    <path d="M 174.25146707490563,711.43169208856762 A 384,384 0 0,1 159.39297888116022,699.83601409129108" />
    <path d="M 145.12136133874492,687.52523213630434 A 384,384 0 0,1 131.47099602436578,674.52900397563428" />
    <path d="M 106.16398590870915,646.60702111884007 A 384,384 0 0,1 94.568307911432328,631.74853292509431" />
    <path d="M 73.632213759895535,600.41545377019725 A 384,384 0 0,1 55.868111440597829,567.18115587722855" />
    <path d="M 41.447078969719996,532.36570370261245 A 384,384 0 0,1 35.534911078831783,514.46931606571354" />
    <path d="M 26.378452325159515,477.91468365419342 A 384,384 0 0,1 23.156220173524162,459.34450219085915" />
    <path d="M 20.849064957876408,440.63858188655121 A 384,384 0 0,1 19.462544817213825,421.84198694172852" />
    <path d="M 19,403.00000000000006 A 384,384 0 0,1 26.378452325159515,328.08531634580675" />
    <path d="M 30.507998773295071,309.69561091714672 A 384,384 0 0,1 35.534911078831783,291.53068393428657" />
    <path d="M 48.230259515665921,256.04956197180547 A 384,384 0 0,1 64.342234490231647,221.98365305881694" />
    <path d="M 83.71566887582253,189.66103052047288 A 384,384 0 0,1 118.47476786369572,145.12136133874498" />
    <path d="M 159.39297888115996,106.16398590870915 A 384,384 0 0,1 205.58454622980281,73.632213759895535" />
    <path d="M 256.04956197180525,48.230259515665978 A 384,384 0 0,1 273.63429629738755,41.447078969719996" />
    <path d="M 291.5306839342864,35.534911078831783 A 384,384 0 0,1 328.08531634580658,26.378452325159515" />
    <path d="M 422.62706973096721,3.4818175179310629 A 400,400 0 1,1 403,3" />
  </g>
  <g fill="none" stroke="#000000" stroke-width="2" stroke-linecap="butt">
    <line x1="403" y1="3" x2="403" y2="35" />
    <line x1="403" y1="67" x2="403" y2="99" />
    <line x1="403" y1="179" x2="403" y2="259" />
    <line x1="403" y1="291" x2="403" y2="307" />
    <line x1="403" y1="339" x2="403" y2="355" />
    <line x1="421.84198694172852" y1="19.462544817213825" x2="419.48673857401246" y2="67.404726715062054" />
    <line x1="418.70165578477378" y1="83.385454014344816" x2="417.13149020629641" y2="115.34690861291034" />
    <line x1="440.63858188655126" y1="20.849064957876408" x2="439.0703076412783" y2="36.772020584631548" />
    <line x1="437.50203339600534" y1="52.694976211386688" x2="434.36548490545937" y2="84.540887464896969" />
    <line x1="426.52411367909457" y1="164.15566559867273" x2="423.38756518854859" y2="196.00157685218304" />
    <line x1="420.25101669800267" y1="227.84748810569334" x2="418.68274245272971" y2="243.77044373244848" />
    <line x1="452.30143941700157" y1="70.636692651833584" x2="442.91068905185841" y2="133.94398928957958" />
    <line x1="474.79323850193521" y1="42.07101681161123" x2="465.42890304516106" y2="89.148710270966262" />
    <line x1="462.307457892903" y1="104.84127475741798" x2="459.18601274064491" y2="120.53383924386964" />
    <line x1="452.94312243612882" y1="151.918968216773" x2="449.82167728387077" y2="167.6115327032247" />
    <line x1="443.57878697935467" y1="198.99666167612807" x2="437.33589667483858" y2="230.38179064903144" />
    <line x1="431.09300637032248" y1="261.76691962193479" x2="424.85011606580639" y2="293.15204859483822" />
    <line x1="496.30438908285333" y1="30.507998773295128" x2="492.41670620440112" y2="46.028498824407791" />
    <line x1="480.75365756904444" y1="92.58999897774595" x2="476.86597469059222" y2="108.11049902885861" />
    <line x1="472.97829181214" y1="123.63099907997133" x2="469.0906089336878" y2="139.15149913108405" />
    <line x1="519.11387090178494" y1="20.223865707116488" x2="514.46931606571354" y2="35.534911078831783" />
    <line x1="509.82476122964215" y1="50.845956450547135" x2="505.18020639357076" y2="66.157001822262487" />
    <line x1="500.53565155749936" y1="81.468047193977839" x2="495.89109672142797" y2="96.77909256569319" />
    <line x1="491.24654188535658" y1="112.09013793740854" x2="486.60198704928519" y2="127.40118330912384" />
    <line x1="481.95743221321374" y1="142.71222868083919" x2="472.66832254107095" y2="173.33431942426989" />
    <line x1="468.02376770499956" y1="188.64536479598522" x2="463.37921286892816" y2="203.95641016770057" />
    <line x1="454.09010319678538" y1="234.57850091113124" x2="444.80099352464259" y2="265.20059165456189" />
    <line x1="521.58522839406146" y1="71.5764890555767" x2="516.19499073978591" y2="86.641194098505025" />
    <line x1="556.07337294603587" y1="33.448186995485287" x2="549.95043802819441" y2="48.230259515665921" />
    <line x1="531.58163327467014" y1="92.576477076207652" x2="525.45869835682879" y2="107.35854959638823" />
    <line x1="513.21282852114587" y1="136.92269463674944" x2="507.0898936033044" y2="151.70476715693002" />
    <line x1="494.84402376762154" y1="181.26891219729117" x2="488.72108884978013" y2="196.05098471747178" />
    <line x1="482.59815393193867" y1="210.83305723765236" x2="476.47521901409721" y2="225.61512975783296" />
    <line x1="458.10641426057293" y1="269.96134731837469" x2="451.98347934273147" y2="284.74341983855527" />
    <line x1="427.49173967136574" y1="343.87170991927763" x2="421.36880475352433" y2="358.65378243945827" />
    <line x1="560.34027438234375" y1="70.331940130572832" x2="546.65851139257484" y2="99.259597510523065" />
    <line x1="539.81762989769027" y1="113.72342620049813" x2="532.9767484028057" y2="128.18725489047324" />
    <line x1="576.47399915196706" y1="78.452974719805354" x2="553.84695578431922" y2="120.78519540852636" />
    <line x1="508.59286904902348" y1="205.44963678596847" x2="501.05052125980751" y2="219.56037701554214" />
    <line x1="493.50817347059154" y1="233.67111724511582" x2="485.96582568137558" y2="247.7818574746895" />
    <line x1="608.6410976772886" y1="59.908555999891178" x2="592.18980986310555" y2="87.355871519899836" />
    <line x1="567.51287814183092" y1="128.52684479991291" x2="551.06159032764788" y2="155.97416031992162" />
    <line x1="616.33896947952724" y1="83.715668875822644" x2="536.33685592470454" y2="203.44729304738914" />
    <line x1="518.5586084680773" y1="230.0543206410706" x2="500.78036101145" y2="256.66134823475204" />
    <line x1="456.33474236988184" y1="323.17891721895569" x2="447.44561864156816" y2="336.48243101579635" />
    <line x1="646.60702111883984" y1="106.16398590870898" x2="606.00585093236657" y2="155.63665492392417" />
    <line x1="555.2543881992749" y1="217.47749119294312" x2="534.95380310603832" y2="242.2138257005507" />
    <line x1="650.13369538370273" y1="130.32998586937504" x2="628.64380882859814" y2="154.04042188073373" />
    <line x1="674.52900397563417" y1="131.47099602436572" x2="663.21529547664954" y2="142.78470452335051" />
    <line x1="640.58787847868" y1="165.41212152132002" x2="617.96046148071036" y2="188.03953851928955" />
    <line x1="595.33304448274089" y1="210.66695551725906" x2="572.70562748477141" y2="233.29437251522859" />
    <line x1="550.07821048680194" y1="255.92178951319809" x2="527.45079348883235" y2="278.54920651116765" />
    <line x1="504.82337649086287" y1="301.17662350913713" x2="493.50966799187808" y2="312.49033200812192" />
    <line x1="459.5685424949238" y1="346.4314575050762" x2="448.25483399593907" y2="357.74516600406093" />
    <line x1="675.670014130625" y1="155.86630461629724" x2="663.81479612494559" y2="166.61124789384954" />
    <line x1="616.3939241022282" y1="209.59102100405872" x2="604.53870609654882" y2="220.335964281611" />
    <line x1="699.836014091291" y1="159.39297888116013" x2="687.46784683748729" y2="169.54327142777845" />
    <line x1="675.09967958368338" y1="179.6935639743968" x2="662.73151232987971" y2="189.84385652101511" />
    <line x1="600.89067606086064" y1="240.59531925410676" x2="576.15434155325306" y2="260.89590434734339" />
    <line x1="724.28301259225793" y1="164.72027820302662" x2="711.43169208856762" y2="174.25146707490555" />
    <line x1="672.87773057749666" y1="202.84503369054235" x2="660.02641007380635" y2="212.37622256242128" />
    <line x1="642.463248343133" y1="242.99577289035454" x2="615.85622074945161" y2="260.77402034698184" />
    <line x1="589.24919315577017" y1="278.55226780360908" x2="562.64216556208862" y2="296.33051526023633" />
    <line x1="536.0351379684073" y1="314.10876271686362" x2="522.73162417156652" y2="322.9978864451773" />
    <line x1="509.4281103747258" y1="331.88701017349092" x2="482.82108278104431" y2="349.66525763011816" />
    <line x1="691.19681296009139" y1="230.26147795107752" x2="677.47315520008715" y2="238.48712185816908" />
    <line x1="713.43628505062088" y1="237.06834863724876" x2="699.32554482104729" y2="244.61069642646473" />
    <line x1="685.21480459147358" y1="252.15304421568069" x2="671.10406436189987" y2="259.69539200489669" />
    <line x1="656.99332413232628" y1="267.2377397941126" x2="628.77184367317886" y2="282.32243537254453" />
    <line x1="558.21814252531044" y1="320.03417431862437" x2="529.99666206616314" y2="335.1188698970563" />
    <line x1="735.66805986942722" y1="245.65972561765616" x2="721.20423117945211" y2="252.50060711254068" />
    <line x1="692.27657379950188" y1="266.18237010230973" x2="663.34891641955164" y2="279.86413309207876" />
    <line x1="772.55181300451477" y1="249.92662705396407" x2="742.9876679641535" y2="262.17249688964694" />
    <line x1="698.64145040361177" y1="280.54130164317127" x2="683.85937788343119" y2="286.66423656101267" />
    <line x1="639.51316032288946" y1="305.033041314537" x2="624.73108780270877" y2="311.15597623237841" />
    <line x1="609.94901528252819" y1="317.27891115021987" x2="595.16694276234762" y2="323.40184606806133" />
    <line x1="580.384870242167" y1="329.52478098590274" x2="521.25658016144473" y2="354.01652065726853" />
    <line x1="476.91036260090294" y1="372.3853254107928" x2="447.34621756054173" y2="384.63119524647567" />
    <line x1="764.55292103028" y1="273.63429629738749" x2="749.48821598735162" y2="279.024533951663" />
    <line x1="719.358805901495" y1="289.80500926021409" x2="689.22939581563833" y2="300.58548456876508" />
    <line x1="755.15404354945281" y1="296.17523877035785" x2="739.84299817773763" y2="300.81979360642924" />
    <line x1="663.28777131916081" y1="324.04256778678626" x2="617.35463520401481" y2="337.97623229500044" />
    <line x1="602.0435898322994" y1="342.62078713107184" x2="586.73254446058411" y2="347.26534196714323" />
    <line x1="571.42149908886881" y1="351.90989680321462" x2="540.79940834543811" y2="361.19900647535741" />
    <line x1="775.49200122670482" y1="309.69561091714661" x2="759.97150117559227" y2="313.58329379559882" />
    <line x1="744.45100112447949" y1="317.47097667405109" x2="728.93050107336671" y2="321.3586595525033" />
    <line x1="713.410001022254" y1="325.24634243095551" x2="682.36900092002861" y2="333.02170818786" />
    <line x1="795.3141121612922" y1="324.9638711935487" x2="779.62154767484049" y2="328.08531634580675" />
    <line x1="732.54385421548545" y1="337.44965180258089" x2="622.69590281032356" y2="359.29976786838728" />
    <line x1="591.31077383742024" y1="365.54265817290337" x2="559.92564486451693" y2="371.78554847741947" />
    <line x1="544.23308037806521" y1="374.90699362967752" x2="528.5405158916135" y2="378.02843878193556" />
    <line x1="512.84795140516178" y1="381.14988393419361" x2="497.15538691871012" y2="384.27132908645166" />
    <line x1="782.84377982647584" y1="346.65549780914108" x2="767.01695566703938" y2="349.0031854004269" />
    <line x1="785.15093504212359" y1="365.36141811344868" x2="641.84433440132727" y2="379.47588632090543" />
    <line x1="609.998423147817" y1="382.61243481145135" x2="546.30660064079632" y2="388.88553179254325" />
    <line x1="802.51818248206894" y1="383.37293026903274" x2="786.53745518278618" y2="384.15801305827142" />
    <line x1="770.55672788350353" y1="384.94309584751011" x2="754.57600058422076" y2="385.72817863674879" />
    <line x1="722.61454598565524" y1="387.29834421522622" x2="706.63381868637248" y2="388.08342700446491" />
    <line x1="787" y1="403" x2="739" y2="403" />
    <line x1="691" y1="403" x2="643" y2="403" />
    <line x1="595" y1="403" x2="579" y2="403" />
    <line x1="563" y1="403" x2="531" y2="403" />
    <line x1="499" y1="403" x2="467" y2="403" />
    <line x1="770.55672788350353" y1="421.05690415248984" x2="754.57600058422076" y2="420.27182136325115" />
    <line x1="706.63381868637248" y1="417.91657299553509" x2="690.65309138708972" y2="417.13149020629641" />
    <line x1="801.07389066887879" y1="442.20685613182428" x2="769.22797941536851" y2="439.0703076412783" />
    <line x1="753.30502378861331" y1="437.50203339600534" x2="737.38206816185811" y2="435.93375915073239" />
    <line x1="705.536156908348" y1="432.79721066018647" x2="657.76729002808247" y2="428.09238792436753" />
    <line x1="609.998423147817" y1="423.38756518854859" x2="562.22955626755152" y2="418.68274245272971" />
    <line x1="735.36330734816647" y1="452.30143941700152" x2="719.5364831887299" y2="449.9537518257157" />
    <line x1="687.88283486985688" y1="445.25837664314417" x2="672.05601071042042" y2="442.91068905185836" />
    <line x1="795.3141121612922" y1="481.0361288064513" x2="779.62154767484049" y2="477.91468365419325" />
    <line x1="763.92898318838877" y1="474.79323850193521" x2="748.236418701937" y2="471.67179334967716" />
    <line x1="716.85128972903374" y1="465.428903045161" x2="685.46616075613042" y2="459.18601274064491" />
    <line x1="669.77359626967871" y1="456.06456758838686" x2="654.081031783227" y2="452.94312243612882" />
    <line x1="607.003338323872" y1="443.57878697935467" x2="575.61820935096853" y2="437.33589667483858" />
    <line x1="544.23308037806521" y1="431.09300637032248" x2="497.15538691871012" y2="421.72867091354829" />
    <line x1="775.49200122670482" y1="496.30438908285333" x2="759.97150117559227" y2="492.41670620440112" />
    <line x1="728.93050107336671" y1="484.64134044749665" x2="666.848500868916" y2="469.0906089336878" />
    <line x1="785.77613429288363" y1="519.11387090178482" x2="770.46508892116822" y2="514.46931606571343" />
    <line x1="739.84299817773763" y1="505.1802063935707" x2="693.90986206259151" y2="491.24654188535646" />
    <line x1="678.59881669087622" y1="486.60198704928507" x2="663.28777131916081" y2="481.95743221321368" />
    <line x1="647.97672594744552" y1="477.31287737714229" x2="632.66568057573011" y2="472.66832254107089" />
    <line x1="617.35463520401481" y1="468.0237677049995" x2="602.0435898322994" y2="463.37921286892811" />
    <line x1="764.55292103028" y1="532.36570370261245" x2="749.48821598735162" y2="526.9754660483369" />
    <line x1="719.358805901495" y1="516.19499073978591" x2="704.29410085856671" y2="510.80475308551036" />
    <line x1="689.22939581563833" y1="505.41451543123486" x2="674.16469077271" y2="500.02427777695937" />
    <line x1="757.76974048433408" y1="549.95043802819441" x2="728.20559544397292" y2="537.7045681925116" />
    <line x1="698.64145040361177" y1="525.45869835682868" x2="683.85937788343119" y2="519.33576343898721" />
    <line x1="624.73108780270877" y1="494.84402376762154" x2="609.94901528252819" y2="488.72108884978013" />
    <line x1="595.16694276234762" y1="482.59815393193867" x2="580.384870242167" y2="476.47521901409721" />
    <line x1="550.82072520180589" y1="464.22934917841434" x2="536.03865268162531" y2="458.10641426057293" />
    <line x1="521.25658016144473" y1="451.98347934273147" x2="506.4745076412641" y2="445.86054442489007" />
    <line x1="491.69243512108352" y1="439.7376095070486" x2="447.34621756054173" y2="421.36880475352433" />
    <line x1="764.59571724937746" y1="574.02203737211278" x2="735.66805986942722" y2="560.34027438234375" />
    <line x1="721.20423117945211" y1="553.49939288745918" x2="692.27657379950188" y2="539.81762989769027" />
    <line x1="677.81274510952676" y1="532.9767484028057" x2="648.88508772957664" y2="519.29498541303667" />
    <line x1="741.6577655097683" y1="584.01634694118309" x2="713.436285050621" y2="568.93165136275115" />
    <line x1="656.99332413232628" y1="538.76226020588729" x2="600.55036321403156" y2="508.59286904902348" />
    <line x1="691.19681296009139" y1="575.7385220489225" x2="636.302181920074" y2="542.8359464205563" />
    <line x1="735.58784492101813" y1="625.22809320784074" x2="722.28433112417747" y2="616.33896947952712" />
    <line x1="695.67730353049592" y1="598.56072202289988" x2="682.37378973365526" y2="589.67159829458626" />
    <line x1="669.0702759368146" y1="580.78247456627264" x2="602.552706952611" y2="536.33685592470442" />
    <line x1="575.94567935892951" y1="518.55860846807718" x2="536.0351379684073" y2="491.89123728313632" />
    <line x1="711.43169208856762" y1="631.74853292509442" x2="698.58037158487741" y2="622.21734405321547" />
    <line x1="672.87773057749678" y1="603.15496630945768" x2="660.02641007380635" y2="593.62377743757861" />
    <line x1="637.99517782227213" y1="595.85555838574817" x2="539.04983979184169" y2="514.65321801280163" />
    <line x1="675.67001413062485" y1="650.13369538370284" x2="616.3939241022282" y2="596.40897899594131" />
    <line x1="685.842712474619" y1="685.842712474619" x2="674.52900397563428" y2="674.52900397563417" />
    <line x1="663.21529547664954" y1="663.21529547664954" x2="640.58787847868" y2="640.58787847868" />
    <line x1="606.64675298172574" y1="606.64675298172574" x2="538.76450198781708" y2="538.76450198781708" />
    <line x1="527.45079348883235" y1="527.45079348883235" x2="482.19595949289334" y2="482.19595949289328" />
    <line x1="660.87863866125508" y1="687.52523213630423" x2="650.13369538370284" y2="675.67001413062485" />
    <line x1="639.38875210615049" y1="663.81479612494559" x2="617.8988655510459" y2="640.10436011358684" />
    <line x1="607.15392227349366" y1="628.24914210790746" x2="585.66403571838907" y2="604.53870609654882" />
    <line x1="656.75731366545824" y1="712.20418134509487" x2="646.60702111883984" y2="699.836014091291" />
    <line x1="606.00585093236657" y1="650.3633450760758" x2="585.70526583912988" y2="625.62701056846822" />
    <line x1="575.55497329251159" y1="613.25884331466443" x2="565.4046807458933" y2="600.89067606086064" />
    <line x1="534.95380310603832" y1="563.78617429944927" x2="514.65321801280163" y2="539.04983979184169" />
    <line x1="504.50292546618329" y1="526.6816725380379" x2="494.35263291956494" y2="514.31350528423411" />
    <line x1="631.74853292509442" y1="711.43169208856762" x2="612.68615518133652" y2="685.729051081187" />
    <line x1="598.5607220229" y1="695.67730353049592" x2="571.89335083795913" y2="655.76676213997382" />
    <line x1="554.11510338133178" y1="629.15973454629238" x2="545.22597965301816" y2="615.85622074945161" />
    <line x1="536.33685592470454" y1="602.55270695261083" x2="518.5586084680773" y2="575.9456793589294" />
    <line x1="509.66948473976362" y1="562.64216556208874" x2="491.89123728313632" y2="536.0351379684073" />
    <line x1="483.0021135548227" y1="522.73162417156652" x2="474.11298982650908" y2="509.4281103747258" />
    <line x1="456.33474236988184" y1="482.82108278104437" x2="447.44561864156816" y2="469.51756898420365" />
    <line x1="600.41545377019713" y1="732.36778624010446" x2="592.18980986310567" y2="718.64412848010011" />
    <line x1="583.96416595601409" y1="704.92047072009575" x2="551.06159032764788" y2="650.02583968007832" />
    <line x1="584.0163469411832" y1="741.6577655097683" x2="568.93165136275127" y2="713.43628505062088" />
    <line x1="561.38930357353524" y1="699.32554482104729" x2="546.30460799510331" y2="671.10406436189987" />
    <line x1="538.7622602058874" y1="656.99332413232628" x2="531.21991241667138" y2="642.88258390275257" />
    <line x1="523.67756462745547" y1="628.77184367317886" x2="516.13521683823944" y2="614.66110344360516" />
    <line x1="574.02203737211278" y1="764.59571724937734" x2="567.18115587722832" y2="750.13188855940223" />
    <line x1="553.49939288745929" y1="721.20423117945211" x2="539.81762989769027" y2="692.27657379950188" />
    <line x1="532.9767484028057" y1="677.81274510952676" x2="519.29498541303667" y2="648.88508772957653" />
    <line x1="549.95043802819453" y1="757.76974048433408" x2="543.82750311035306" y2="742.9876679641535" />
    <line x1="531.58163327467014" y1="713.42352292379235" x2="513.21282852114587" y2="669.07730536325062" />
    <line x1="507.08989360330446" y1="654.29523284306993" x2="500.966958685463" y2="639.51316032288946" />
    <line x1="494.84402376762159" y1="624.73108780270877" x2="482.59815393193867" y2="595.16694276234762" />
    <line x1="470.3522840962558" y1="565.60279772198646" x2="464.2293491784144" y2="550.82072520180589" />
    <line x1="445.86054442489007" y1="506.4745076412641" x2="439.73760950704866" y2="491.69243512108352" />
    <line x1="427.49173967136574" y1="462.12829008072237" x2="421.36880475352433" y2="447.34621756054173" />
    <line x1="526.97546604833713" y1="749.48821598735162" x2="521.58522839406157" y2="734.42351094442324" />
    <line x1="500.02427777695948" y1="674.16469077271" x2="494.63404012268393" y2="659.09998572978157" />
    <line x1="509.82476122964215" y1="755.15404354945281" x2="505.18020639357076" y2="739.84299817773751" />
    <line x1="495.89109672142797" y1="709.22090743430681" x2="481.95743221321379" y2="663.28777131916081" />
    <line x1="477.3128773771424" y1="647.9767259474454" x2="472.668322541071" y2="632.66568057573011" />
    <line x1="463.37921286892816" y1="602.0435898322994" x2="454.09010319678538" y2="571.42149908886881" />
    <line x1="496.30438908285339" y1="775.49200122670482" x2="492.41670620440118" y2="759.97150117559227" />
    <line x1="474.79323850193532" y1="763.92898318838877" x2="468.55034819741923" y2="732.54385421548545" />
    <line x1="456.064567588387" y1="669.77359626967871" x2="452.94312243612893" y2="654.081031783227" />
    <line x1="446.70023213161278" y1="622.69590281032356" x2="443.57878697935473" y2="607.003338323872" />
    <line x1="437.33589667483864" y1="575.61820935096853" x2="427.97156121806444" y2="528.5405158916135" />
    <line x1="424.85011606580639" y1="512.84795140516178" x2="421.72867091354834" y2="497.15538691871012" />
    <line x1="459.34450219085892" y1="782.84377982647584" x2="454.64912700828734" y2="751.19013150760293" />
    <line x1="447.60606423443" y1="703.70965902929345" x2="445.25837664314417" y2="687.88283486985688" />
    <line x1="439.07030764127836" y1="769.22797941536851" x2="435.93375915073244" y2="737.38206816185811" />
    <line x1="429.66066216964055" y1="673.69024565483755" x2="428.09238792436759" y2="657.76729002808236" />
    <line x1="426.52411367909463" y1="641.84433440132727" x2="423.38756518854865" y2="609.998423147817" />
    <line x1="421.81929094327569" y1="594.0754675210618" x2="420.25101669800273" y2="578.1525118943066" />
    <line x1="420.27182136325115" y1="754.57600058422076" x2="416.34640741705766" y2="674.672364087807" />
    <line x1="403.00000000000006" y1="771" x2="403.00000000000006" y2="755" />
    <line x1="403.00000000000006" y1="707" x2="403.00000000000006" y2="675" />
    <line x1="403" y1="579" x2="403" y2="563" />
    <line x1="403" y1="515" x2="403" y2="499" />
    <line x1="403" y1="451" x2="403" y2="435" />
    <line x1="384.15801305827159" y1="786.53745518278618" x2="386.51326142598765" y2="738.595273284938" />
    <line x1="387.29834421522634" y1="722.61454598565524" x2="388.86850979370371" y2="690.65309138708972" />
    <line x1="366.9296923587217" y1="769.22797941536851" x2="368.49796660399466" y2="753.30502378861331" />
    <line x1="376.33933783035951" y1="673.69024565483755" x2="377.90761207563247" y2="657.76729002808247" />
    <line x1="382.61243481145141" y1="609.998423147817" x2="385.74898330199733" y2="578.1525118943066" />
    <line x1="387.31725754727029" y1="562.22955626755152" x2="388.88553179254325" y2="546.30660064079632" />
    <line x1="344.30781021785538" y1="798.67060398591241" x2="349.00318540042696" y2="767.01695566703938" />
    <line x1="351.35087299171272" y1="751.19013150760293" x2="363.08931094814164" y2="672.05601071042042" />
    <line x1="337.44965180258089" y1="732.54385421548545" x2="340.57109695483894" y2="716.85128972903374" />
    <line x1="353.05687756387113" y1="654.081031783227" x2="359.29976786838722" y2="622.69590281032356" />
    <line x1="362.42121302064533" y1="607.003338323872" x2="365.54265817290337" y2="591.31077383742024" />
    <line x1="371.78554847741947" y1="559.92564486451693" x2="381.14988393419361" y2="512.84795140516178" />
    <line x1="384.27132908645166" y1="497.15538691871012" x2="387.39277423870971" y2="481.46282243225846" />
    <line x1="325.24634243095556" y1="713.410001022254" x2="329.13402530940778" y2="697.88950097114139" />
    <line x1="291.53068393428657" y1="770.46508892116822" x2="300.81979360642936" y2="739.84299817773763" />
    <line x1="305.46434844250075" y1="724.53195280602222" x2="310.10890327857214" y2="709.22090743430681" />
    <line x1="314.75345811464354" y1="693.90986206259151" x2="319.39801295071493" y2="678.59881669087622" />
    <line x1="324.04256778678632" y1="663.28777131916081" x2="328.68712262285771" y2="647.97672594744552" />
    <line x1="351.90989680321468" y1="571.42149908886881" x2="356.55445163928607" y2="556.1104537171534" />
    <line x1="273.63429629738749" y1="764.55292103028" x2="279.024533951663" y2="749.48821598735162" />
    <line x1="284.41477160593854" y1="734.42351094442324" x2="300.58548456876508" y2="689.22939581563833" />
    <line x1="262.172496889647" y1="742.98766796415362" x2="274.41836672532986" y2="713.42352292379246" />
    <line x1="286.66423656101273" y1="683.85937788343119" x2="298.9101063966956" y2="654.29523284307" />
    <line x1="305.03304131453706" y1="639.51316032288946" x2="329.52478098590279" y2="580.384870242167" />
    <line x1="335.6477159037442" y1="565.60279772198646" x2="347.89358573942707" y2="536.03865268162531" />
    <line x1="354.01652065726853" y1="521.25658016144473" x2="366.2623904929514" y2="491.69243512108352" />
    <line x1="372.3853254107928" y1="476.91036260090294" x2="378.50826032863426" y2="462.12829008072237" />
    <line x1="231.97796262788728" y1="764.59571724937746" x2="245.65972561765631" y2="735.66805986942722" />
    <line x1="273.0232515971943" y1="677.81274510952676" x2="279.86413309207887" y2="663.34891641955164" />
    <line x1="237.06834863724882" y1="713.436285050621" x2="244.61069642646478" y2="699.32554482104729" />
    <line x1="252.15304421568075" y1="685.21480459147369" x2="259.69539200489669" y2="671.10406436189987" />
    <line x1="274.78008758332862" y1="642.88258390275257" x2="282.32243537254459" y2="628.77184367317886" />
    <line x1="297.40713095097652" y1="600.55036321403156" x2="304.94947874019249" y2="586.43962298445786" />
    <line x1="205.58454622980293" y1="732.36778624010446" x2="222.03583404398603" y2="704.92047072009586" />
    <line x1="230.26147795107755" y1="691.19681296009139" x2="238.4871218581691" y2="677.47315520008715" />
    <line x1="254.93840967235218" y1="650.02583968007843" x2="263.1640535794437" y2="636.302181920074" />
    <line x1="180.77190679215923" y1="735.58784492101813" x2="198.55015424878647" y2="708.98081732733681" />
    <line x1="207.43927797710012" y1="695.67730353049592" x2="216.32840170541374" y2="682.37378973365526" />
    <line x1="234.106649162041" y1="655.76676213997382" x2="242.99577289035463" y2="642.463248343133" />
    <line x1="251.88489661866828" y1="629.15973454629238" x2="269.66314407529552" y2="602.552706952611" />
    <line x1="296.33051526023644" y1="562.64216556208874" x2="340.7761339018046" y2="496.12459657788509" />
    <line x1="349.66525763011822" y1="482.82108278104437" x2="358.55438135843184" y2="469.51756898420365" />
    <line x1="174.25146707490563" y1="711.43169208856762" x2="221.90741143430029" y2="647.175089570116" />
    <line x1="231.43860030617924" y1="634.32376906642571" x2="240.96978917805816" y2="621.47244856273539" />
    <line x1="159.39297888116022" y1="699.83601409129108" x2="169.54327142777854" y2="687.46784683748729" />
    <line x1="199.99414906763352" y1="650.3633450760758" x2="220.29473416087018" y2="625.62701056846822" />
    <line x1="250.74561180072513" y1="588.522508807057" x2="281.19648944058008" y2="551.41800704564548" />
    <line x1="134.37641806119262" y1="699.3804501419836" x2="145.12136133874492" y2="687.52523213630434" />
    <line x1="155.86630461629721" y1="675.670014130625" x2="166.61124789384951" y2="663.81479612494559" />
    <line x1="188.1011344489541" y1="640.104360113587" x2="198.84607772650639" y2="628.24914210790757" />
    <line x1="165.41212152132005" y1="640.58787847868007" x2="199.35324701827432" y2="606.64675298172574" />
    <line x1="221.98066401624385" y1="584.01933598375626" x2="255.92178951319812" y2="550.07821048680194" />
    <line x1="267.23549801218292" y1="538.76450198781708" x2="278.54920651116765" y2="527.45079348883235" />
    <line x1="323.80404050710672" y1="482.19595949289334" x2="335.11774900609146" y2="470.88225099390854" />
    <line x1="357.74516600406093" y1="448.25483399593907" x2="369.05887450304573" y2="436.94112549695427" />
    <line x1="106.61954985801646" y1="671.62358193880755" x2="130.32998586937515" y2="650.13369538370284" />
    <line x1="165.89563988641316" y1="617.8988655510459" x2="177.75085789209251" y2="607.15392227349366" />
    <line x1="106.16398590870915" y1="646.60702111884007" x2="118.53215316251288" y2="636.45672857222166" />
    <line x1="143.26848767012046" y1="616.15614347898509" x2="155.63665492392425" y2="606.00585093236668" />
    <line x1="180.37298943153184" y1="585.70526583913" x2="192.74115668533563" y2="575.5549732925117" />
    <line x1="229.845658446747" y1="545.10409565265672" x2="266.95016020815831" y2="514.65321801280174" />
    <line x1="279.3183274619621" y1="504.50292546618334" x2="291.68649471576589" y2="494.352632919565" />
    <line x1="81.716987407741954" y1="641.27972179697326" x2="94.568307911432271" y2="631.74853292509431" />
    <line x1="107.41962841512265" y1="622.21734405321536" x2="133.12226942250328" y2="603.15496630945756" />
    <line x1="83.715668875822644" y1="616.33896947952724" x2="110.32269646950408" y2="598.5607220229" />
    <line x1="150.23323786002624" y1="571.89335083795913" x2="163.53675165686698" y2="563.0042271096454" />
    <line x1="230.0543206410706" y1="518.5586084680773" x2="243.35783443791132" y2="509.66948473976362" />
    <line x1="256.66134823475204" y1="500.78036101145" x2="296.5718896252742" y2="474.11298982650908" />
    <line x1="323.17891721895569" y1="456.33474236988184" x2="336.48243101579635" y2="447.44561864156816" />
    <line x1="59.908555999891178" y1="608.64109767728871" x2="73.632213759895535" y2="600.41545377019713" />
    <line x1="101.07952927990425" y1="583.96416595601409" x2="142.25050255991732" y2="559.28723423473946" />
    <line x1="120.78519540852642" y1="553.84695578431933" x2="134.89593563810013" y2="546.30460799510331" />
    <line x1="149.00667586767378" y1="538.7622602058874" x2="219.56037701554217" y2="501.05052125980757" />
    <line x1="233.67111724511585" y1="493.5081734705916" x2="276.00333793383686" y2="470.8811301029437" />
    <line x1="99.259597510523122" y1="546.658511392575" x2="113.72342620049818" y2="539.81762989769038" />
    <line x1="142.65108358044836" y1="526.13586690792135" x2="157.11491227042347" y2="519.29498541303678" />
    <line x1="33.4481869954854" y1="556.0733729460361" x2="92.576477076207709" y2="531.58163327467037" />
    <line x1="107.35854959638834" y1="525.4586983568289" x2="136.9226946367495" y2="513.212828521146" />
    <line x1="151.70476715693008" y1="507.08989360330457" x2="166.48683967711065" y2="500.96695868546311" />
    <line x1="210.83305723765241" y1="482.59815393193878" x2="225.615129757833" y2="476.47521901409732" />
    <line x1="240.39720227801357" y1="470.35228409625591" x2="255.17927479819417" y2="464.22934917841445" />
    <line x1="269.96134731837475" y1="458.106414260573" x2="314.30756487891648" y2="439.73760950704866" />
    <line x1="56.51178401264832" y1="526.9754660483369" x2="116.77060418436167" y2="505.41451543123486" />
    <line x1="131.83530922729" y1="500.02427777695937" x2="146.90001427021832" y2="494.63404012268381" />
    <line x1="35.534911078831783" y1="514.46931606571354" x2="96.77909256569319" y2="495.89109672142797" />
    <line x1="112.09013793740854" y1="491.24654188535658" x2="127.40118330912384" y2="486.60198704928519" />
    <line x1="173.33431942426989" y1="472.668322541071" x2="219.26745553941589" y2="458.73465803285677" />
    <line x1="234.57850091113124" y1="454.09010319678538" x2="249.8895462828466" y2="449.445548360714" />
    <line x1="14.987498722182409" y1="500.19207196130566" x2="92.58999897774595" y2="480.75365756904455" />
    <line x1="123.63099907997133" y1="472.97829181214007" x2="139.15149913108405" y2="469.09060893368786" />
    <line x1="26.378452325159572" y1="477.91468365419342" x2="73.4561457845146" y2="468.55034819741923" />
    <line x1="89.148710270966319" y1="465.42890304516118" x2="104.84127475741798" y2="462.30745789290313" />
    <line x1="151.91896821677304" y1="452.94312243612893" x2="198.9966616761281" y2="443.57878697935473" />
    <line x1="214.68922616257979" y1="440.45734182709668" x2="230.38179064903147" y2="437.33589667483864" />
    <line x1="261.76691962193485" y1="431.09300637032254" x2="277.4594841083865" y2="427.97156121806449" />
    <line x1="54.809868492397129" y1="454.64912700828751" x2="70.636692651833641" y2="452.30143941700175" />
    <line x1="86.4635168112701" y1="449.95375182571593" x2="102.29034097070661" y2="447.60606423443016" />
    <line x1="4.9261093311212107" y1="442.20685613182417" x2="20.849064957876408" y2="440.63858188655121" />
    <line x1="36.772020584631548" y1="439.07030764127825" x2="52.694976211386688" y2="437.50203339600529" />
    <line x1="68.617931838141828" y1="435.93375915073233" x2="84.540887464896969" y2="434.36548490545937" />
    <line x1="100.46384309165211" y1="432.79721066018635" x2="116.38679871840731" y2="431.22893641491339" />
    <line x1="132.30975434516245" y1="429.66066216964043" x2="180.0786212254279" y2="424.95583943382155" />
    <line x1="196.00157685218304" y1="423.38756518854859" x2="211.9245324789382" y2="421.81929094327563" />
    <line x1="83.385454014344816" y1="418.70165578477378" x2="99.366181313627578" y2="417.91657299553509" />
    <line x1="115.34690861291034" y1="417.13149020629641" x2="131.3276359121931" y2="416.34640741705772" />
    <line x1="19" y1="403.00000000000006" x2="35" y2="403.00000000000006" />
    <line x1="51" y1="403.00000000000006" x2="83" y2="403.00000000000006" />
    <line x1="99" y1="403.00000000000006" x2="115" y2="403.00000000000006" />
    <line x1="131" y1="403.00000000000006" x2="163" y2="403.00000000000006" />
    <line x1="179" y1="403.00000000000006" x2="195" y2="403.00000000000006" />
    <line x1="227" y1="403.00000000000006" x2="243" y2="403.00000000000006" />
    <line x1="291" y1="403" x2="307" y2="403" />
    <line x1="355" y1="403" x2="371" y2="403" />
    <line x1="35.44327211649653" y1="384.94309584751028" x2="51.423999415779292" y2="385.72817863674896" />
    <line x1="83.385454014344816" y1="387.29834421522634" x2="99.366181313627578" y2="388.083427004465" />
    <line x1="20.849064957876408" y1="365.36141811344891" x2="36.772020584631548" y2="366.92969235872187" />
    <line x1="84.540887464896969" y1="371.63451509454075" x2="100.46384309165211" y2="373.20278933981376" />
    <line x1="116.38679871840731" y1="374.77106358508672" x2="132.30975434516245" y2="376.33933783035968" />
    <line x1="164.15566559867273" y1="379.4758863209056" x2="227.84748810569334" y2="385.74898330199744" />
    <line x1="243.77044373244848" y1="387.3172575472704" x2="259.69339935920368" y2="388.88553179254336" />
    <line x1="23.156220173524162" y1="346.655497809141" x2="86.4635168112701" y2="356.04624817428419" />
    <line x1="102.29034097070661" y1="358.39393576556995" x2="118.11716513014312" y2="360.74162335685577" />
    <line x1="10.6858878387078" y1="324.9638711935487" x2="26.378452325159515" y2="328.08531634580675" />
    <line x1="42.07101681161123" y1="331.20676149806479" x2="73.456145784514547" y2="337.44965180258089" />
    <line x1="89.148710270966262" y1="340.57109695483894" x2="167.6115327032247" y2="356.17832271612923" />
    <line x1="198.99666167612807" y1="362.42121302064533" x2="246.07435513548313" y2="371.78554847741947" />
    <line x1="261.76691962193479" y1="374.90699362967752" x2="293.15204859483822" y2="381.14988393419361" />
    <line x1="308.84461308128988" y1="384.27132908645166" x2="324.53717756774154" y2="387.39277423870976" />
    <line x1="30.507998773295128" y1="309.69561091714672" x2="61.54899887552051" y2="317.47097667405114" />
    <line x1="92.58999897774595" y1="325.24634243095556" x2="123.63099907997133" y2="333.02170818786004" />
    <line x1="35.534911078831783" y1="291.53068393428657" x2="50.845956450547135" y2="296.17523877035796" />
    <line x1="66.15700182226243" y1="300.81979360642936" x2="96.779092565693134" y2="310.10890327857214" />
    <line x1="142.71222868083919" y1="324.04256778678632" x2="158.02327405255451" y2="328.68712262285771" />
    <line x1="203.95641016770054" y1="342.62078713107189" x2="219.26745553941589" y2="347.26534196714329" />
    <line x1="234.57850091113122" y1="351.90989680321468" x2="265.20059165456189" y2="361.19900647535746" />
    <line x1="26.382373926791615" y1="268.24405864311217" x2="41.447078969719996" y2="273.63429629738766" />
    <line x1="71.576489055576644" y1="284.41477160593871" x2="86.641194098504968" y2="289.80500926021421" />
    <line x1="116.77060418436162" y1="300.58548456876525" x2="131.83530922729" y2="305.97572222304075" />
    <line x1="48.230259515665921" y1="256.04956197180547" x2="63.0123320358465" y2="262.17249688964688" />
    <line x1="107.35854959638829" y1="280.54130164317121" x2="122.14062211656886" y2="286.66423656101267" />
    <line x1="136.92269463674944" y1="292.78717147885408" x2="151.70476715693005" y2="298.91010639669554" />
    <line x1="181.2689121972912" y1="311.15597623237841" x2="210.83305723765238" y2="323.40184606806127" />
    <line x1="225.61512975783296" y1="329.52478098590274" x2="255.17927479819414" y2="341.7706508215856" />
    <line x1="299.5254923587359" y1="360.13945557510993" x2="343.87170991927763" y2="378.50826032863426" />
    <line x1="70.331940130572832" y1="245.65972561765616" x2="113.72342620049813" y2="266.18237010230973" />
    <line x1="128.18725489047324" y1="273.02325159719419" x2="142.6510835804483" y2="279.86413309207876" />
    <line x1="134.89593563810007" y1="259.69539200489675" x2="149.00667586767375" y2="267.23773979411271" />
    <line x1="163.11741609724743" y1="274.78008758332862" x2="191.33889655639479" y2="289.86478316176056" />
    <line x1="233.67111724511582" y1="312.49182652940846" x2="247.7818574746895" y2="320.03417431862442" />
    <line x1="59.908555999891121" y1="197.35890232271137" x2="87.355871519899836" y2="213.81019013689448" />
    <line x1="101.07952927990419" y1="222.03583404398603" x2="142.25050255991727" y2="246.71276576526066" />
    <line x1="110.32269646950402" y1="207.43927797710015" x2="123.62621026634474" y2="216.32840170541377" />
    <line x1="136.92972406318546" y1="225.21752543372742" x2="176.84026545370764" y2="251.88489661866831" />
    <line x1="190.14377925054836" y1="260.77402034698196" x2="203.44729304738908" y2="269.66314407529558" />
    <line x1="269.9648620315927" y1="314.10876271686368" x2="296.5718896252742" y2="331.887010173491" />
    <line x1="107.41962841512253" y1="183.7826559467847" x2="120.27094891881285" y2="193.31384481866363" />
    <line x1="133.12226942250317" y1="202.84503369054255" x2="145.97358992619354" y2="212.37622256242148" />
    <line x1="106.16398590870904" y1="159.3929788811601" x2="118.53215316251283" y2="169.54327142777842" />
    <line x1="155.6366549239242" y1="199.9941490676334" x2="168.004822177728" y2="210.14444161425175" />
    <line x1="192.74115668533557" y1="230.44502670748841" x2="217.47749119294315" y2="250.74561180072504" />
    <line x1="118.47476786369572" y1="145.12136133874498" x2="189.60607589777177" y2="209.59102100405872" />
    <line x1="120.15728752538092" y1="120.15728752538104" x2="154.09841302233522" y2="154.09841302233534" />
    <line x1="176.72583002030473" y1="176.72583002030484" x2="199.35324701827426" y2="199.35324701827437" />
    <line x1="233.29437251522856" y1="233.29437251522865" x2="255.92178951319809" y2="255.92178951319815" />
    <line x1="312.49033200812187" y1="312.49033200812192" x2="335.11774900609146" y2="335.11774900609146" />
    <line x1="134.37641806119251" y1="106.61954985801646" x2="155.86630461629713" y2="130.32998586937515" />
    <line x1="166.61124789384942" y1="142.18520387505447" x2="188.10113444895404" y2="165.89563988641316" />
    <line x1="199.99414906763332" y1="155.63665492392425" x2="210.14444161425163" y2="168.00482217772805" />
    <line x1="250.745611800725" y1="217.47749119294321" x2="260.89590434734328" y2="229.845658446747" />
    <line x1="271.04619689396168" y1="242.21382570055079" x2="281.19648944057997" y2="254.58199295435458" />
    <line x1="183.78265594678456" y1="107.41962841512265" x2="193.31384481866348" y2="120.27094891881296" />
    <line x1="202.84503369054244" y1="133.12226942250328" x2="212.37622256242136" y2="145.9735899261936" />
    <line x1="207.43927797710003" y1="110.32269646950408" x2="216.32840170541368" y2="123.6262102663448" />
    <line x1="225.2175254337273" y1="136.92972406318552" x2="251.88489661866822" y2="176.8402654537077" />
    <line x1="260.77402034698184" y1="190.14377925054842" x2="296.33051526023638" y2="243.35783443791132" />
    <line x1="197.35890232271126" y1="59.908555999891178" x2="205.58454622980281" y2="73.632213759895535" />
    <line x1="246.71276576526054" y1="142.25050255991732" x2="254.93840967235209" y2="155.97416031992165" />
    <line x1="221.9836530588168" y1="64.34223449023176" x2="229.52600084803277" y2="78.452974719805411" />
    <line x1="237.06834863724873" y1="92.563714949379118" x2="252.15304421568067" y2="120.78519540852648" />
    <line x1="267.2377397941126" y1="149.00667586767381" x2="282.32243537254453" y2="177.22815632682116" />
    <line x1="289.8647831617605" y1="191.33889655639484" x2="304.94947874019243" y2="219.5603770155422" />
    <line x1="231.977962627887" y1="41.40428275062277" x2="245.65972561765602" y2="70.331940130572946" />
    <line x1="252.50060711254054" y1="84.795768820548" x2="259.34148860742505" y2="99.259597510523122" />
    <line x1="266.18237010230962" y1="113.72342620049818" x2="273.02325159719408" y2="128.1872548904733" />
    <line x1="262.17249688964671" y1="63.012332035846555" x2="280.5413016431711" y2="107.35854959638834" />
    <line x1="292.78717147885396" y1="136.9226946367495" x2="298.91010639669543" y2="151.70476715693008" />
    <line x1="305.03304131453683" y1="166.48683967711065" x2="335.64771590374409" y2="240.39720227801357" />
    <line x1="347.89358573942695" y1="269.96134731837475" x2="354.01652065726842" y2="284.74341983855533" />
    <line x1="273.63429629738755" y1="41.447078969719996" x2="279.02453395166305" y2="56.51178401264832" />
    <line x1="284.41477160593854" y1="71.5764890555767" x2="289.80500926021409" y2="86.641194098505025" />
    <line x1="295.19524691448959" y1="101.70589914143335" x2="300.58548456876514" y2="116.77060418436167" />
    <line x1="305.97572222304063" y1="131.83530922729" x2="311.36595987731619" y2="146.90001427021832" />
    <line x1="286.886129098215" y1="20.223865707116488" x2="291.5306839342864" y2="35.534911078831783" />
    <line x1="296.17523877035779" y1="50.845956450547135" x2="300.81979360642919" y2="66.157001822262487" />
    <line x1="305.46434844250064" y1="81.468047193977839" x2="310.10890327857203" y2="96.77909256569319" />
    <line x1="337.97623229500039" y1="188.64536479598522" x2="342.62078713107178" y2="203.95641016770057" />
    <line x1="309.69561091714655" y1="30.507998773295128" x2="321.35865955250324" y2="77.06949892663323" />
    <line x1="325.24634243095545" y1="92.58999897774595" x2="329.13402530940766" y2="108.11049902885861" />
    <line x1="331.20676149806462" y1="42.07101681161123" x2="340.57109695483882" y2="89.148710270966319" />
    <line x1="343.69254210709687" y1="104.84127475741798" x2="356.17832271612912" y2="167.61153270322473" />
    <line x1="362.42121302064521" y1="198.9966616761281" x2="368.66410332516136" y2="230.38179064903147" />
    <line x1="371.78554847741941" y1="246.07435513548316" x2="374.90699362967746" y2="261.76691962193485" />
    <line x1="378.02843878193551" y1="277.4594841083865" x2="381.14988393419355" y2="293.15204859483822" />
    <line x1="384.27132908645166" y1="308.84461308128988" x2="387.39277423870971" y2="324.53717756774159" />
    <line x1="346.65549780914085" y1="23.156220173524162" x2="353.69856058299825" y2="70.636692651833641" />
    <line x1="356.046248174284" y1="86.4635168112701" x2="360.74162335685565" y2="118.11716513014312" />
    <line x1="363.79314386817578" y1="4.9261093311212107" x2="368.49796660399471" y2="52.694976211386688" />
    <line x1="377.90761207563253" y1="148.23270997191759" x2="379.47588632090549" y2="164.15566559867273" />
    <line x1="384.94309584751016" y1="35.44327211649653" x2="385.72817863674885" y2="51.423999415779292" />
  </g>
</svg>
