<?xml version="1.0" standalone="no"?>
<!DOCTYPE svg PUBLIC "-//W3C//DTD SVG 1.1//EN" "http://www.w3.org/Graphics/SVG/1.1/DTD/svg11.dtd">
<svg width="324" height="324" version="1.1" xmlns="http://www.w3.org/2000/svg">
  <title>20 cells diameter theta maze</title>
  <desc>20 cells diameter theta maze generated by The Maze Generator Website (https://www.mazegenerator.net/).</desc>
  <g fill="none" stroke="#000000" stroke-width="2" stroke-linecap="square">
    <path d="M 140.37258300203047,185.62741699796953 A 32,32 0 1,1 163,195" />
    <path d="M 144.63119524647567,118.65378243945824 A 48,48 0 1,1 118.65378243945824,181.36880475352433" />
    <path d="M 115,163 A 48,48 0 0,1 129.05887450304573,129.05887450304573" />
    <path d="M 103.87170991927766,138.50826032863424 A 64,64 0 0,1 163,99" />
    <path d="M 187.49173967136574,103.87170991927765 A 64,64 0 0,1 222.12829008072237,138.50826032863427" />
    <path d="M 227,163 A 64,64 0 0,1 163,227" />
    <path d="M 138.50826032863427,222.12829008072237 A 64,64 0 0,1 117.74516600406096,208.25483399593907" />
    <path d="M 103.87170991927766,187.49173967136579 A 64,64 0 0,1 99,163" />
    <path d="M 96.482431015796365,118.55438135843184 A 80,80 0 0,1 178.60722576129027,84.537177567741566" />
    <path d="M 219.5685424949238,106.4314575050762 A 80,80 0 0,1 229.51756898420362,118.55438135843181" />
    <path d="M 236.91036260090294,132.3853254107928 A 80,80 0 0,1 241.46282243225843,147.39277423870973" />
    <path d="M 243,163 A 80,80 0 0,1 236.91036260090294,193.61467458920717" />
    <path d="M 229.51756898420365,207.44561864156816 A 80,80 0 0,1 219.5685424949238,219.5685424949238" />
    <path d="M 207.44561864156816,229.51756898420362 A 80,80 0 0,1 163,243" />
    <path d="M 147.39277423870973,241.46282243225843 A 80,80 0 0,1 118.55438135843184,229.51756898420365" />
    <path d="M 96.482431015796379,207.44561864156816 A 80,80 0 0,1 84.537177567741566,178.60722576129029" />
    <path d="M 83,163.00000000000003 A 80,80 0 0,1 89.089637399097072,132.3853254107928" />
    <path d="M 163,67 A 96,96 0 0,1 199.7376095070486,74.307564878916466" />
    <path d="M 216.33474236988181,83.178917218955661 A 96,96 0 0,1 230.88225099390854,95.117749006091429" />
    <path d="M 242.82108278104434,109.66525763011819 A 96,96 0 0,1 251.69243512108352,126.26239049295137" />
    <path d="M 257.15538691871012,181.72867091354831 A 96,96 0 0,1 242.82108278104437,216.33474236988178" />
    <path d="M 230.88225099390857,230.88225099390854 A 96,96 0 0,1 216.33474236988181,242.82108278104437" />
    <path d="M 163,259 A 96,96 0 0,1 144.27132908645169,257.15538691871012" />
    <path d="M 109.66525763011822,242.82108278104437 A 96,96 0 0,1 68.844613081289879,181.72867091354834" />
    <path d="M 68.844613081289879,144.27132908645169 A 96,96 0 0,1 74.30756487891648,126.26239049295137" />
    <path d="M 95.117749006091429,95.117749006091458 A 96,96 0 0,1 144.27132908645166,68.844613081289879" />
    <path d="M 184.85011606580636,53.152048594838192 A 112,112 0 0,1 225.22386609819546,69.875403422114928" />
    <path d="M 242.19595949289334,83.804040507106677 A 112,112 0 0,1 256.12459657788509,100.77613390180454" />
    <path d="M 266.4745076412641,120.13945557510994 A 112,112 0 0,1 272.84795140516178,141.14988393419364" />
    <path d="M 275,163 A 112,112 0 0,1 272.84795140516178,184.85011606580636" />
    <path d="M 242.19595949289334,242.19595949289331 A 112,112 0 0,1 100.77613390180459,256.12459657788509" />
    <path d="M 69.875403422114928,225.22386609819546 A 112,112 0 0,1 51,163.00000000000003" />
    <path d="M 69.8754034221149,100.7761339018046 A 112,112 0 0,1 100.77613390180454,69.875403422114928" />
    <path d="M 138.02843878193554,37.459484108386519 A 128,128 0 0,1 211.9834793427315,44.7434198385553" />
    <path d="M 269.4281103747258,91.8870101734909 A 128,128 0 0,1 291,163" />
    <path d="M 288.5405158916135,187.97156121806441 A 128,128 0 0,1 253.50966799187808,253.50966799187808" />
    <path d="M 234.11298982650908,269.4281103747258 A 128,128 0 0,1 187.97156121806447,288.5405158916135" />
    <path d="M 138.02843878193556,288.5405158916135 A 128,128 0 0,1 114.01652065726853,281.25658016144473" />
    <path d="M 91.88701017349095,269.4281103747258 A 128,128 0 0,1 56.57188962527421,234.11298982650908" />
    <path d="M 37.459484108386519,187.97156121806447 A 128,128 0 0,1 35,163.00000000000003" />
    <path d="M 37.459484108386505,138.02843878193556 A 128,128 0 0,1 56.571889625274181,91.887010173490964" />
    <path d="M 91.887010173490921,56.57188962527421 A 128,128 0 0,1 114.01652065726843,44.743419838555326" />
    <path d="M 163,19 A 144,144 0 0,1 191.09300637032249,21.766919621934818" />
    <path d="M 204.80099352464259,25.200591654561919 A 144,144 0 0,1 243.0021135548227,43.268375828433477" />
    <path d="M 254.35263291956494,51.686494715765875 A 144,144 0 0,1 282.73162417156652,82.997886445177272" />
    <path d="M 289.99666206616314,95.118869897056314 A 144,144 0 0,1 300.79940834543811,121.19900647535744" />
    <path d="M 306.30660064079632,148.88553179254325 A 144,144 0 0,1 300.79940834543811,204.80099352464256" />
    <path d="M 296.03865268162531,218.10641426057293 A 144,144 0 0,1 230.8811301029437,289.99666206616314" />
    <path d="M 218.10641426057293,296.03865268162531 A 144,144 0 0,1 121.19900647535745,300.79940834543811" />
    <path d="M 107.8935857394271,296.03865268162531 A 144,144 0 0,1 71.647367080435075,274.31350528423411" />
    <path d="M 61.176623509137173,264.82337649086287 A 144,144 0 0,1 51.686494715765917,254.352632919565" />
    <path d="M 43.268375828433477,243.0021135548227 A 144,144 0 0,1 29.961347318374749,218.10641426057302" />
    <path d="M 21.766919621934818,191.09300637032254 A 144,144 0 0,1 43.268375828433449,82.997886445177329" />
    <path d="M 61.17662350913713,61.176623509137173 A 144,144 0 0,1 71.647367080434989,51.686494715765932" />
    <path d="M 107.89358573942698,29.961347318374749 A 144,144 0 0,1 121.19900647535741,25.200591654561919" />
    <path d="M 134.90699362967746,21.766919621934818 A 144,144 0 0,1 148.88553179254328,19.693399359203653" />
    <path d="M 178.68274245272968,3.7704437324484843 A 160,160 0 1,1 163,3" />
  </g>
  <g fill="none" stroke="#000000" stroke-width="2" stroke-linecap="butt">
    <line x1="163" y1="35" x2="163" y2="67" />
    <line x1="194.21445152258053" y1="6.0743551354831311" x2="191.09300637032246" y2="21.766919621934818" />
    <line x1="218.10641426057293" y1="29.96134731837472" x2="211.9834793427315" y2="44.7434198385553" />
    <line x1="205.86054442489007" y1="59.525492358735889" x2="187.49173967136574" y2="103.87170991927765" />
    <line x1="234.11298982650908" y1="56.57188962527421" x2="225.22386609819546" y2="69.875403422114928" />
    <line x1="216.33474236988181" y1="83.178917218955661" x2="207.44561864156816" y2="96.482431015796379" />
    <line x1="264.50292546618329" y1="39.318327461962085" x2="254.35263291956494" y2="51.686494715765875" />
    <line x1="264.82337649086287" y1="61.176623509137144" x2="230.88225099390854" y2="95.117749006091429" />
    <line x1="219.5685424949238" y1="106.4314575050762" x2="208.25483399593904" y2="117.74516600406096" />
    <line x1="242.82108278104434" y1="109.66525763011818" x2="229.51756898420362" y2="118.55438135843181" />
    <line x1="304.10740229573679" y1="87.576522107840347" x2="289.99666206616314" y2="95.118869897056314" />
    <line x1="266.4745076412641" y1="120.13945557510994" x2="251.69243512108352" y2="126.26239049295137" />
    <line x1="222.12829008072237" y1="138.50826032863427" x2="207.34621756054176" y2="144.6311952464757" />
    <line x1="319.92564486451687" y1="131.78554847741947" x2="288.5405158916135" y2="138.02843878193556" />
    <line x1="272.84795140516178" y1="141.14988393419364" x2="241.46282243225843" y2="147.39277423870973" />
    <line x1="275" y1="163" x2="227" y2="163" />
    <line x1="304.23308037806521" y1="191.09300637032246" x2="272.84795140516178" y2="184.85011606580636" />
    <line x1="281.25658016144473" y1="211.98347934273147" x2="266.4745076412641" y2="205.86054442489007" />
    <line x1="256.12459657788509" y1="225.2238660981954" x2="229.51756898420365" y2="207.44561864156816" />
    <line x1="253.50966799187808" y1="253.50966799187808" x2="230.88225099390857" y2="230.88225099390854" />
    <line x1="219.5685424949238" y1="219.5685424949238" x2="208.25483399593904" y2="208.25483399593904" />
    <line x1="243.0021135548227" y1="282.73162417156652" x2="234.11298982650908" y2="269.4281103747258" />
    <line x1="216.33474236988181" y1="242.82108278104437" x2="207.44561864156816" y2="229.51756898420362" />
    <line x1="238.42347789215967" y1="304.10740229573679" x2="230.8811301029437" y2="289.99666206616314" />
    <line x1="199.73760950704863" y1="251.69243512108352" x2="193.6146745892072" y2="236.91036260090294" />
    <line x1="184.85011606580639" y1="272.84795140516178" x2="181.72867091354834" y2="257.15538691871012" />
    <line x1="163.00000000000003" y1="307" x2="163" y2="275" />
    <line x1="144.27132908645169" y1="257.15538691871012" x2="147.39277423870973" y2="241.46282243225843" />
    <line x1="107.8935857394271" y1="296.03865268162531" x2="114.01652065726853" y2="281.25658016144473" />
    <line x1="126.2623904929514" y1="251.69243512108352" x2="144.6311952464757" y2="207.34621756054176" />
    <line x1="91.88701017349095" y1="269.4281103747258" x2="100.77613390180459" y2="256.12459657788509" />
    <line x1="61.497074533816757" y1="286.6816725380379" x2="71.647367080435089" y2="274.31350528423411" />
    <line x1="61.176623509137158" y1="264.82337649086287" x2="106.4314575050762" y2="219.5685424949238" />
    <line x1="129.05887450304573" y1="196.94112549695427" x2="140.37258300203047" y2="185.62741699796953" />
    <line x1="29.964862031592759" y1="251.89123728313635" x2="43.268375828433491" y2="243.0021135548227" />
    <line x1="29.961347318374749" y1="218.10641426057302" x2="59.5254923587359" y2="205.86054442489012" />
    <line x1="89.089637399097086" y1="193.61467458920723" x2="103.87170991927766" y2="187.49173967136579" />
    <line x1="9.8895462828465952" y1="209.44554836071399" x2="25.200591654561919" y2="204.80099352464259" />
    <line x1="68.844613081289893" y1="181.72867091354834" x2="84.53717756774158" y2="178.60722576129029" />
    <line x1="35" y1="163.00000000000003" x2="83" y2="163.00000000000003" />
    <line x1="99" y1="163" x2="115" y2="163" />
    <line x1="21.766919621934818" y1="134.90699362967752" x2="53.152048594838192" y2="141.14988393419364" />
    <line x1="59.5254923587359" y1="120.13945557510992" x2="103.87170991927766" y2="138.50826032863424" />
    <line x1="56.571889625274181" y1="91.887010173490964" x2="96.482431015796365" y2="118.55438135843185" />
    <line x1="39.3183274619621" y1="61.4970745338167" x2="51.686494715765889" y2="71.647367080435032" />
    <line x1="61.17662350913713" y1="61.176623509137187" x2="83.804040507106663" y2="83.804040507106691" />
    <line x1="129.05887450304573" y1="129.05887450304573" x2="140.37258300203047" y2="140.3725830020305" />
    <line x1="61.497074533816658" y1="39.318327461962127" x2="71.647367080434989" y2="51.686494715765917" />
    <line x1="82.997886445177286" y1="43.268375828433491" x2="91.887010173490921" y2="56.57188962527421" />
    <line x1="100.77613390180456" y1="69.875403422114928" x2="109.66525763011819" y2="83.178917218955661" />
    <line x1="87.576522107840333" y1="21.892597704263238" x2="95.1188698970563" y2="36.0033379338369" />
    <line x1="107.89358573942698" y1="29.961347318374749" x2="120.13945557510988" y2="59.5254923587359" />
    <line x1="138.50826032863421" y1="103.87170991927766" x2="144.63119524647567" y2="118.65378243945824" />
    <line x1="116.554451639286" y1="9.8895462828465952" x2="121.19900647535741" y2="25.200591654561919" />
    <line x1="134.90699362967746" y1="21.766919621934846" x2="138.02843878193554" y2="37.459484108386519" />
    <line x1="141.14988393419358" y1="53.152048594838206" x2="144.27132908645166" y2="68.844613081289893" />
  </g>
</svg>
